<?xml version="1.0" standalone="no"?>
<!DOCTYPE svg PUBLIC "-//W3C//DTD SVG 1.1//EN" "http://www.w3.org/Graphics/SVG/1.1/DTD/svg11.dtd" >
<svg xmlns="http://www.w3.org/2000/svg" xmlns:xlink="http://www.w3.org/1999/xlink" version="1.1">
<metadata>
Created by FontForge 20200427 at Thu Oct 27 20:32:53 2016
 By www
Copyright (c) 2014 by (c) 2009 Designed by Svetoslav Simov (c) Fontfabric, Inc. All rights reserved.
</metadata>
<defs>
<font id="UniSansHeavy" horiz-adv-x="1327" >
  <font-face 
    font-family="Uni Sans Heavy"
    font-weight="900"
    font-stretch="normal"
    units-per-em="2048"
    panose-1="0 0 5 0 0 0 0 0 0 0"
    ascent="1548"
    descent="-500"
    x-height="1061"
    cap-height="1450"
    bbox="-117 -520 2148 2042"
    underline-thickness="102"
    underline-position="-204"
    unicode-range="U+0020-FB02"
  />
<missing-glyph horiz-adv-x="748" 
d="M68 0v1365h544v-1365h-544zM136 68h408v1229h-408v-1229z" />
    <glyph glyph-name="uniFB01" unicode="fi" horiz-adv-x="1193" 
d="M98 0h346v713h174v293h-174v55q0 54 50.5 80.5t134.5 7.5v297q-116 23 -213.5 2.5t-168 -72t-110 -134t-39.5 -181.5v-1061zM725 1309q0 62 29.5 106.5t73.5 64.5t95.5 19.5t95.5 -21t73.5 -65t29.5 -104.5t-29.5 -104.5t-73.5 -65t-95.5 -21t-95.5 19.5t-73.5 64.5
t-29.5 106.5zM754 0h344v1061h-344v-1061z" />
    <glyph glyph-name="uniFB02" unicode="fl" horiz-adv-x="1267" 
d="M98 0v1061q0 99 39.5 181.5t110 134t168 72t213.5 -2.5v-297q-84 19 -134.5 -7.5t-50.5 -80.5v-55h174v-293h-174v-713h-346zM752 397v1053h346v-1049q0 -51 41.5 -79.5t113.5 -10.5v-301q-107 -29 -198.5 -9t-159 73.5t-105.5 138t-38 184.5z" />
    <glyph glyph-name=".notdef" horiz-adv-x="748" 
d="M68 0v1365h544v-1365h-544zM136 68h408v1229h-408v-1229z" />
    <glyph glyph-name="glyph1" horiz-adv-x="0" 
 />
    <glyph glyph-name="glyph2" horiz-adv-x="682" 
 />
    <glyph glyph-name="space" unicode=" " horiz-adv-x="372" 
 />
    <glyph glyph-name="exclam" unicode="!" horiz-adv-x="595" 
d="M88 1458h418l-21 -1007h-376zM96 182q0 86 59 146.5t144 60.5q86 0 146.5 -60.5t60.5 -146.5q0 -85 -60.5 -143.5t-146.5 -58.5q-85 0 -144 58.5t-59 143.5z" />
    <glyph glyph-name="quotedbl" unicode="&#x22;" horiz-adv-x="946" 
d="M96 858v594h355l-43 -594h-312zM516 858v594h354l-41 -594h-313z" />
    <glyph glyph-name="numbersign" unicode="#" 
d="M45 346l88 299h152l18 68h-151l92 311h151l97 330h323l-96 -330h86l96 330h338l-98 -330h135l-90 -311h-137l-19 -68h135l-88 -299h-137l-102 -348h-324l100 348h-86l-100 -348h-334l103 348h-152zM596 618h121l33 121h-119z" />
    <glyph glyph-name="dollar" unicode="$" horiz-adv-x="1167" 
d="M49 283l262 180q38 -53 71.5 -73.5t78.5 -27.5v199q-392 92 -387 453q9 163 116.5 270t270.5 143v121h264v-118q110 -14 192 -69t162 -175l-245 -156q-36 61 -109 74v-230q72 -17 127 -38.5t108 -59t86.5 -86t52.5 -121t15 -163.5q-13 -158 -121 -262.5t-268 -143.5v-133
h-264v131q-125 4 -230.5 78.5t-181.5 206.5zM397 1010q-3 -93 78 -121v233q-37 -20 -57.5 -49.5t-20.5 -60.5v-2zM713 334q37 20 57.5 49.5t20.5 60.5v2q3 93 -78 121v-233z" />
    <glyph glyph-name="percent" unicode="%" horiz-adv-x="1515" 
d="M53 1112q0 162 84.5 260t218.5 98q149 0 229.5 -94t80.5 -268q0 -166 -87 -264.5t-223 -98.5q-146 0 -224.5 94t-78.5 273zM113 14l1007 1557l264 -176l-1007 -1551zM283 1110q0 -121 71 -121q68 0 68 119q0 123 -68 123q-32 0 -51.5 -30t-19.5 -91zM852 354
q0 162 84.5 260.5t218.5 98.5q149 0 229 -94.5t80 -268.5q0 -166 -86.5 -264t-222.5 -98q-146 0 -224.5 93.5t-78.5 272.5zM1081 352q0 -121 72 -121q68 0 68 119q0 123 -68 123q-32 0 -52 -30.5t-20 -90.5z" />
    <glyph glyph-name="ampersand" unicode="&#x26;" horiz-adv-x="1396" 
d="M59 461q0 127 54.5 213t162.5 151q-61 64 -87.5 139t-19.5 145t42 136t91 114.5t133.5 76.5t164.5 26q161 -5 277 -109t116 -268q0 -117 -46 -195t-130 -138l121 -150l131 113l205 -262l-135 -111l272 -340h-430l-98 117q-73 -64 -164 -96.5t-181.5 -32t-177.5 32.5
t-153.5 90t-107 148.5t-40.5 199.5zM410 435q3 -39 26 -70q39 -55 111.5 -55.5t122.5 55.5l-178 208q-43 -22 -64 -60.5t-18 -77.5zM498 1079q0 -17 12.5 -40.5t24.5 -39.5t38 -47q52 35 76.5 65.5t24.5 67.5q0 36 -23.5 62.5t-56.5 26.5q-39 0 -67.5 -28t-28.5 -67z" />
    <glyph glyph-name="quotesingle" unicode="'" horiz-adv-x="524" 
d="M96 856v594h348l-30 -594h-318z" />
    <glyph glyph-name="parenleft" unicode="(" horiz-adv-x="659" 
d="M59 711q0 247 84.5 491t245.5 426l242 -158q-251 -379 -247.5 -770t253.5 -776l-260 -174q-155 218 -236.5 469.5t-81.5 491.5z" />
    <glyph glyph-name="parenright" unicode=")" horiz-adv-x="647" 
d="M25 -80q159 255 216.5 515.5t4 520.5t-220.5 492l233 156q162 -183 246 -416t84 -477q0 -241 -81 -490t-237 -467z" />
    <glyph glyph-name="asterisk" unicode="*" horiz-adv-x="976" 
d="M49 1010l94 323l209 -98l-30 219h335l-39 -217l213 92l97 -325l-230 -29l166 -160l-264 -203l-111 207l-106 -207l-274 199l165 172z" />
    <glyph glyph-name="plus" unicode="+" horiz-adv-x="1159" 
d="M55 483v348h359v349h346v-349h344v-348h-344v-350h-346v350h-359z" />
    <glyph glyph-name="comma" unicode="," horiz-adv-x="589" 
d="M-45 -305l174 522h385l-205 -522h-354z" />
    <glyph glyph-name="hyphen" unicode="-" horiz-adv-x="827" 
d="M94 420v348h639v-348h-639z" />
    <glyph glyph-name="period" unicode="." horiz-adv-x="526" 
d="M59 195q0 85 59 143.5t144 58.5t145 -59t60 -143q0 -86 -60 -146.5t-145 -60.5t-144 60.5t-59 146.5z" />
    <glyph glyph-name="slash" unicode="/" horiz-adv-x="1007" 
d="M41 -27l604 1592l322 -113l-602 -1595z" />
    <glyph glyph-name="zero" unicode="0" horiz-adv-x="1220" 
d="M86 424v600q0 90 31 165t82.5 126t120 86.5t141.5 52t149 16.5t150 -16.5t142 -52t119.5 -86.5t82.5 -126t31 -165v-600q0 -89 -31 -163.5t-82.5 -125.5t-119.5 -86.5t-142 -52t-150 -16.5t-149 16.5t-141.5 52t-120 86.5t-82.5 125.5t-31 163.5zM434 420
q0 -60 52.5 -94.5t123.5 -34.5q69 0 122.5 35t53.5 94v594q0 62 -54 98.5t-122 36.5q-69 0 -122.5 -37t-53.5 -98v-594z" />
    <glyph glyph-name="one" unicode="1" horiz-adv-x="763" 
d="M-2 1044l385 406h276v-1450h-329v973l-140 -96z" />
    <glyph glyph-name="two" unicode="2" horiz-adv-x="1140" 
d="M33 193l590 663q82 93 54 181q-20 63 -84 88q-80 31 -161 -23q-56 -37 -96 -111l-275 150q86 164 222 246.5t292 82.5q116 0 210 -37.5t153.5 -100.5t91 -142.5t31.5 -165.5q0 -237 -180 -406l-320 -303l170 35h328v-348h-934z" />
    <glyph glyph-name="three" unicode="3" horiz-adv-x="1105" 
d="M33 242l237 219q38 -61 101.5 -92t132.5 -31q76 0 129 34t53 91q0 59 -41.5 99t-116.5 40h-225v293h217q44 0 73 32.5t30 72t-17 73.5q-32 49 -94.5 61t-128.5 -12.5t-111 -74.5l-213 188q89 110 211 172.5t246 62.5q70 0 133 -13t122 -41t106 -78.5t75 -120.5
q30 -75 32.5 -157.5t-31 -162t-103.5 -123.5q53 -27 92 -68.5t60.5 -88.5t31.5 -92.5t10 -90.5q0 -83 -29 -156t-79.5 -126.5t-117 -93t-143.5 -59t-157 -19.5q-148 0 -277.5 65.5t-207.5 196.5z" />
    <glyph glyph-name="four" unicode="4" horiz-adv-x="1175" 
d="M0 530l676 920h301v-838h135v-297h-135v-315h-350v315h-510zM397 608h256l4 371z" />
    <glyph glyph-name="five" unicode="5" horiz-adv-x="1107" 
d="M57 248l260 205q49 -60 116 -85t124 -14t98.5 52.5t44.5 103.5q6 105 -48 160t-142 55q-145 0 -236 -121h-168v846h861v-322h-568v-163q107 36 204 36.5t180.5 -37.5t144.5 -100.5t96 -152.5t35 -193q0 -104 -33 -198t-97.5 -171t-172 -123t-244.5 -46q-131 0 -251 66
t-204 202z" />
    <glyph glyph-name="six" unicode="6" horiz-adv-x="1196" 
d="M84 436v578q0 105 46.5 193t123.5 144.5t173 87.5t198 31q148 0 270 -68t186 -200l-256 -147q-32 51 -85.5 76.5t-114.5 25.5q-78 0 -134.5 -39.5t-56.5 -105.5v-150q68 49 149.5 69t160 12t152.5 -41.5t129.5 -86.5t89.5 -129.5t34 -163.5v-86q0 -108 -44.5 -196.5
t-118.5 -144t-168 -85.5t-197 -30t-198 29.5t-171.5 85t-122 144t-45.5 197.5zM434 424q0 -47 37.5 -79t91 -39.5t107.5 -0.5t91.5 39.5t37.5 79.5v108q0 44 -37.5 74t-91.5 36.5t-107.5 -0.5t-91 -37t-37.5 -73v-108z" />
    <glyph glyph-name="seven" unicode="7" horiz-adv-x="1085" 
d="M47 1102v348h936l98 -197l-559 -1253h-393l471 1102h-553z" />
    <glyph glyph-name="eight" unicode="8" horiz-adv-x="1228" 
d="M61 436q0 89 50.5 178.5t144.5 159.5q-66 44 -96.5 115t-30.5 145q0 97 32 174.5t81.5 125.5t114 79.5t125.5 44t120 12.5h29q74 0 141.5 -15.5t128.5 -50t105.5 -85.5t71 -128t26.5 -171q0 -56 -33.5 -130.5t-91.5 -113.5q92 -47 141 -140.5t47 -178.5
q-5 -228 -139 -352.5t-397 -124.5h-29q-252 0 -396.5 119.5t-144.5 336.5zM446 404q41 -79 154 -82h35q115 0 157 81.5t-5 160t-146 69.5h-47q-97 3 -143 -73.5t-5 -155.5zM465 1056.5q-7 -30.5 1.5 -60.5t25.5 -55t49 -40.5t73 -15.5q46 0 81.5 15t53.5 39.5t26.5 54
t0.5 60t-24.5 55.5t-48 42.5t-70.5 19.5h-31q-39 -1 -69 -17t-45.5 -41.5t-22.5 -56z" />
    <glyph glyph-name="nine" unicode="9" horiz-adv-x="1204" 
d="M55 936v86q0 108 44.5 195.5t119 141.5t168.5 82.5t197 28.5t197.5 -28.5t170 -82t121.5 -141t47 -196.5v-578q0 -108 -46 -197.5t-122 -146.5t-171 -88.5t-197 -31.5q-160 0 -294 70t-200 206l260 172q37 -62 99 -91.5t131 -29.5q77 0 133.5 39.5t56.5 99.5v150
q-68 -49 -149.5 -69.5t-160 -13t-152.5 41.5t-129.5 87.5t-89.5 130t-34 163.5zM406 926q0 -44 37.5 -74t91 -36.5t107 0.5t91 37t37.5 73v108q0 43 -37.5 73t-91 37t-107 0.5t-91 -36.5t-37.5 -74v-108z" />
    <glyph glyph-name="colon" unicode=":" horiz-adv-x="567" 
d="M80 217q0 88 59.5 146.5t145.5 58.5q85 0 143.5 -58t58.5 -147q0 -85 -59 -145t-143 -60q-85 0 -145 60t-60 145zM80 805q0 84 60 142.5t145 58.5t143.5 -58t58.5 -143q0 -86 -58.5 -146.5t-143.5 -60.5t-145 60.5t-60 146.5z" />
    <glyph glyph-name="semicolon" unicode=";" horiz-adv-x="598" 
d="M14 -262l125 522h383l-188 -522h-320zM92 782q0 86 57.5 143.5t147.5 57.5q87 0 144 -58t57 -143q0 -88 -57 -147.5t-144 -59.5q-90 0 -147.5 59t-57.5 148z" />
    <glyph glyph-name="less" unicode="&#x3c;" horiz-adv-x="911" 
d="M51 487v224l750 481v-408l-330 -186q129 -68 330 -178v-408z" />
    <glyph glyph-name="equal" unicode="=" horiz-adv-x="1083" 
d="M96 236v319h889v-319h-889zM96 653v318h889v-318h-889z" />
    <glyph glyph-name="greater" unicode="&#x3e;" horiz-adv-x="911" 
d="M109 12v408l346 178l-346 186v408l751 -481v-224z" />
    <glyph glyph-name="question" unicode="?" horiz-adv-x="1005" 
d="M43 1196q45 86 110.5 147t137 90.5t150 35.5t151 -11.5t138.5 -57t115 -95.5t78 -132t29 -161q0 -55 -13 -107.5t-41 -101.5t-68.5 -88.5t-99.5 -68t-130 -38.5l-20 -239h-308l-20 467q90 -34 165.5 -26.5t125 56.5t49.5 123q0 53 -41.5 87.5t-96.5 41.5t-113.5 -18.5
t-88.5 -81.5zM240 133q0 81 53.5 132.5t132.5 51.5q78 0 131 -51.5t53 -132.5q0 -78 -53.5 -132t-130.5 -54q-78 0 -132 54t-54 132z" />
    <glyph glyph-name="at" unicode="@" horiz-adv-x="1556" 
d="M70 698q8 111 45 219t102.5 204t151.5 169.5t200 116.5t240 43q107 0 215 -27q133 -39 248 -125.5t170 -191.5q61 -118 64.5 -262.5t-49.5 -277.5t-152 -218q-49 -45 -124 -74.5t-149 -29.5q-89 0 -149 43q-62 -39 -146 -39q-161 0 -261.5 112.5t-100.5 282.5
q0 127 52.5 241.5t145 185.5t199.5 71q113 0 215 -82l37 43l147 -37q-49 69 -148.5 106t-195.5 37q-119 0 -218 -50t-161.5 -131.5t-96.5 -180.5t-34 -201q0 -160 78.5 -276t212 -156t310.5 8l55 -196q-136 -43 -256 -43q-135 0 -256.5 52t-210.5 143.5t-138 227t-42 293.5z
M655 758q-32 -105 8 -189q10 -20 23 -37q29 -32 82 -32q60 0 92 32l66 302q-93 98 -179 52q-64 -34 -92 -128zM1110 489q77 34 118 127t38 193.5t-41 167.5l-19 37z" />
    <glyph glyph-name="A" unicode="A" 
d="M-12 0l506 1450h333l519 -1450h-394l-94 291h-387l-90 -291h-393zM553 616h217l-100 424h-11z" />
    <glyph glyph-name="B" unicode="B" horiz-adv-x="1277" 
d="M115 0v1450h581q138 0 246 -52t168 -154q57 -95 58 -219q0 -8 -1 -17q-2 -60 -40 -130t-109 -106q57 -29 99.5 -69t64.5 -82q21 -41 34 -87q12 -41 12 -77v-8q-2 -39 -5 -74q-60 -375 -516 -375h-592zM483 322h213q63 0 106 30q42 30 52 74q5 21 5 43q1 23 -5 45
q-10 44 -53 74t-105 30h-213v-296zM483 883h213q43 0 74.5 19t45.5 48q15 30 16 64q0 32 -14 60q-14 29 -46 48t-76 19h-213v-258z" />
    <glyph glyph-name="C" unicode="C" horiz-adv-x="1191" 
d="M80 475v500q0 119 49 215t131 156t184 92t213 32q71 0 139 -16.5t137.5 -52.5t130.5 -103.5t103 -160.5l-299 -121q-35 64 -107 94q-57 24 -113 23q-14 1 -28 -1q-69 -8 -121.5 -50t-52.5 -107v-500q0 -50 34.5 -88.5t86.5 -52.5q42 -11 86 -11q11 1 22 1q56 4 106 38
t73 91l320 -148q-44 -85 -106.5 -149.5t-133 -102t-141.5 -55.5t-142 -18q-109 0 -210 31.5t-182 91.5t-130 156.5t-49 215.5z" />
    <glyph glyph-name="D" unicode="D" horiz-adv-x="1302" 
d="M115 0v1450h542q89 0 170.5 -17.5t153.5 -56t125 -94.5t84 -137t31 -180v-488q0 -97 -31 -177.5t-84 -135.5t-125 -93q-71 -38 -153 -55q-77 -16 -161 -16h-10h-542zM483 344h187q91 0 136.5 42.5t45.5 115.5v452q0 72 -46 113t-136 41h-187v-764z" />
    <glyph glyph-name="E" unicode="E" horiz-adv-x="1204" 
d="M115 0v1450h1009v-344h-639v-225h588v-318h-588v-217h639v-346h-1009z" />
    <glyph glyph-name="F" unicode="F" horiz-adv-x="1179" 
d="M115 0v1450h1009v-348h-639v-260h559v-342h-559v-500h-370z" />
    <glyph glyph-name="G" unicode="G" horiz-adv-x="1275" 
d="M80 481v498q0 119 49 214.5t130.5 154.5t182.5 90.5t211 31.5q74 0 145 -16.5t139.5 -51t126 -96.5t93.5 -145l-307 -141q-23 56 -72.5 89t-105.5 35q-7 1 -15 1q-47 0 -91 -13q-52 -16 -86 -57t-34 -96v-498q0 -54 31.5 -94t78.5 -57.5t102 -17.5t102 18t78.5 57.5
t31.5 93.5v54h-231v307h584v-361q0 -121 -48 -218.5t-128.5 -158t-181.5 -92.5t-212 -32q-110 0 -211 32t-182.5 92.5t-130.5 158t-49 218.5z" />
    <glyph glyph-name="H" unicode="H" horiz-adv-x="1384" 
d="M115 0v1450h368v-549h418v549h369v-1450h-369v547h-418v-547h-368z" />
    <glyph glyph-name="I" unicode="I" horiz-adv-x="595" 
d="M115 0v1450h366v-1450h-366z" />
    <glyph glyph-name="J" unicode="J" horiz-adv-x="1202" 
d="M6 426l346 72q14 -82 73 -123t134 -41q70 0 123 39t53 100v645h-329v332h692v-977q0 -114 -47.5 -209t-126 -156t-176.5 -94.5t-203 -33.5q-96 0 -184.5 27t-163 80t-125.5 140.5t-66 198.5z" />
    <glyph glyph-name="K" unicode="K" horiz-adv-x="1310" 
d="M115 0v1450h368v-537l394 537h456l-573 -700l571 -750h-465l-370 518l-13 -16v-502h-368z" />
    <glyph glyph-name="L" unicode="L" horiz-adv-x="1101" 
d="M115 0v1450h368v-1088h590v-362h-958z" />
    <glyph glyph-name="M" unicode="M" horiz-adv-x="1574" 
d="M115 0v1450h366l305 -709l308 709h366v-1450h-368l2 418l22 293l-12 2l-191 -498h-251l-195 498l-10 -2l24 -293v-418h-366z" />
    <glyph glyph-name="N" unicode="N" horiz-adv-x="1384" 
d="M115 0v1450h348l350 -619l123 -290l10 2q-1 0 -20.5 125t-20.5 125v657h365v-1450h-371l-328 571l-127 291l-10 -2l47 -280v-580h-366z" />
    <glyph glyph-name="O" unicode="O" horiz-adv-x="1361" 
d="M80 477v496q0 97 33.5 179.5t91 140t134.5 98t163 60t178 19.5t178.5 -19.5t163.5 -60t135 -98.5t91.5 -140t33.5 -179v-496q0 -97 -33.5 -179t-91 -140t-134.5 -98.5t-163 -60t-178 -19.5t-178.5 19.5t-163.5 60t-135 98.5t-91.5 140t-33.5 179zM446 477
q0 -75 70 -116.5t166 -41.5q95 0 164 42t69 116v496q0 54 -35.5 92t-88.5 55t-115 17q-92 0 -161 -44.5t-69 -119.5v-496z" />
    <glyph glyph-name="P" unicode="P" horiz-adv-x="1265" 
d="M115 0v1450h579q103 0 190.5 -28.5t149.5 -78t105.5 -115t64.5 -139t21 -151.5q0 -99 -34 -189.5t-98.5 -164t-167 -117t-229.5 -43.5h-215v-424h-366zM481 750h213q45 0 81 19.5t54.5 51t26.5 69.5q4 19 4 38q0 20 -4 40q-8 38 -26.5 69.5t-54.5 51t-81 19.5h-213v-358z
" />
    <glyph glyph-name="Q" unicode="Q" horiz-adv-x="1361" 
d="M80 477v496q0 97 33.5 179.5t91 140t134.5 98t163 60t178 19.5t178.5 -19.5t163.5 -60t135 -98.5t91.5 -140t33.5 -179v-496q0 -141 -74 -256l113 -115l-203 -182l-119 123q-143 -67 -317 -67q-92 0 -178.5 19.5t-163.5 60t-135 98.5t-91.5 140t-33.5 179zM446 477
q0 -48 28 -87.5t70 -59t92 -24.5q10 -1 19 -1q40 0 76 17l-119 122l203 177l100 -103v455q0 53 -34.5 92t-86.5 56t-110 17h-4q-60 -1 -112.5 -18.5t-87 -56t-34.5 -90.5v-496z" />
    <glyph glyph-name="R" unicode="R" horiz-adv-x="1323" 
d="M115 0v1450h579q115 0 209.5 -27.5t168.5 -83t116 -149t45 -217.5q0 -196 -74.5 -314t-210.5 -161l395 -498h-456l-336 461h-66v-461h-370zM485 776h215q55 0 95.5 24.5t59 61.5t18.5 80t-18.5 80t-59 61.5t-95.5 24.5h-215v-332z" />
    <glyph glyph-name="S" unicode="S" horiz-adv-x="1155" 
d="M45 242l231 217q42 -51 104 -85.5t124 -45.5q41 -7 80 -7q20 -1 38 1q56 6 91 34q39 31 39 78q0 36 -36 66q-38 32 -92.5 49t-119.5 26q-90 14 -168.5 49.5t-142 91t-100 138t-36.5 182.5q0 103 44.5 187.5t118.5 137t167.5 81t194.5 28.5q145 0 267.5 -51.5
t227.5 -179.5l-239 -184q-54 59 -128 89q-69 29 -129 29h-7q-62 -2 -107 -36t-47 -95q5 -94 192 -135q61 -11 110 -23.5t104 -33t96.5 -45.5t80 -62.5t62.5 -83.5q24 -47 37 -109q11 -51 10 -109v-27q-3 -82 -38.5 -153t-92 -121.5t-129.5 -87t-152.5 -54.5t-160.5 -18
q-134 0 -264.5 67.5t-229.5 194.5z" />
    <glyph glyph-name="T" unicode="T" horiz-adv-x="1198" 
d="M29 1104v348h1140v-348h-385v-1104h-370v1104h-385z" />
    <glyph glyph-name="U" unicode="U" horiz-adv-x="1366" 
d="M106 485v965h371v-965q0 -48 23 -85.5t59.5 -57t80.5 -28.5q22 -4 44 -4.5t44 4.5q44 9 81 28.5t60.5 57t23.5 85.5v965h371v-965q0 -140 -64.5 -250t-166.5 -166.5t-226 -82.5q-62 -13 -123.5 -13.5t-123.5 13.5q-123 26 -225 82.5t-165.5 166.5t-63.5 250z" />
    <glyph glyph-name="V" unicode="V" horiz-adv-x="1343" 
d="M-18 1452h393l227 -709l66 -344h6l65 342l230 711h393l-522 -1450h-336z" />
    <glyph glyph-name="W" unicode="W" horiz-adv-x="1873" 
d="M0 1450h381l172 -694l37 -307h10l35 305l162 508h278l150 -510l47 -303h6l41 303l176 698h379l-418 -1450h-340l-129 401l-51 332h-6l-56 -330l-114 -403h-340z" />
    <glyph glyph-name="X" unicode="X" horiz-adv-x="1343" 
d="M-6 0l407 723l-407 727h428l248 -496l254 496h426l-406 -727l406 -723h-426l-254 494l-248 -494h-428z" />
    <glyph glyph-name="Y" unicode="Y" horiz-adv-x="1341" 
d="M-18 1450h426l262 -532l262 532h430l-508 -879v-571h-367v571z" />
    <glyph glyph-name="Z" unicode="Z" horiz-adv-x="1239" 
d="M29 135l626 975h-581v340h1054l78 -123l-624 -993l589 4v-338h-1075z" />
    <glyph glyph-name="bracketleft" unicode="[" horiz-adv-x="671" 
d="M102 -205v1659h492v-340h-141v-981h141v-338h-492z" />
    <glyph glyph-name="backslash" unicode="\" horiz-adv-x="1030" 
d="M39 1456l330 115l622 -1579l-325 -111z" />
    <glyph glyph-name="bracketright" unicode="]" horiz-adv-x="671" 
d="M78 129h137v991h-137v334h491v-1659h-491v334z" />
    <glyph glyph-name="asciicircum" unicode="^" horiz-adv-x="1335" 
d="M53 827l506 621h201l520 -621h-424l-199 236l-194 -236h-410z" />
    <glyph glyph-name="underscore" unicode="_" horiz-adv-x="1214" 
d="M92 70h1032v-346h-1032v346z" />
    <glyph glyph-name="grave" unicode="`" horiz-adv-x="831" 
d="M41 1888h381l205 -340h-318z" />
    <glyph glyph-name="a" unicode="a" horiz-adv-x="989" 
d="M47 332q0 144 103.5 237t295.5 93q70 0 123 -9v15q0 137 -143 137q-98 0 -184 -76l-160 162q71 96 176 143t225 47q83 0 157.5 -23t133.5 -68t94 -119.5t35 -168.5v-651q-196 -71 -409 -71q-222 0 -334.5 91.5t-112.5 260.5zM371 334q0 -38 18.5 -61t48.5 -31
q25 -6 52 -6h10q32 2 65 10v182q-33 11 -63 11q-36 0 -70 -15q-62 -27 -61 -90z" />
    <glyph glyph-name="b" unicode="b" horiz-adv-x="1038" 
d="M96 68v1382h348v-393q67 24 125 24q78 0 148 -23.5t126.5 -68t90 -118t33.5 -166.5v-338q0 -105 -35 -182.5t-97 -121t-137 -63.5t-166 -20q-208 0 -436 88zM444 260q30 -12 68 -12q49 0 81 23t32 71v356q0 51 -31 75t-78 24q-25 0 -72 -21v-516z" />
    <glyph glyph-name="c" unicode="c" horiz-adv-x="946" 
d="M72 358v334q0 94 37.5 170t99.5 122.5t138.5 71.5t158.5 25q46 0 90 -8t91.5 -29t87 -52.5t73 -83t51.5 -117.5l-291 -91q-8 44 -38.5 67.5t-67.5 23.5t-64.5 -25t-27.5 -66v-340q0 -41 28 -65.5t68 -24.5q37 0 69.5 22.5t45.5 65.5l299 -67q-22 -69 -58.5 -123.5
t-78.5 -89t-91.5 -57.5t-95 -32t-90.5 -9q-84 0 -159 21t-138 64.5t-100 118.5t-37 174z" />
    <glyph glyph-name="d" unicode="d" horiz-adv-x="1040" 
d="M74 352v355q0 112 55.5 198.5t146 131t197.5 44.5q65 0 123 -18v387h348v-1384q-229 -86 -436 -86q-91 0 -165.5 18.5t-136.5 60t-97 116t-35 177.5zM416 348q0 -49 33 -73.5t81 -24.5q36 0 66 10v524q-38 15 -78 15q-42 0 -72 -26.5t-30 -70.5v-354z" />
    <glyph glyph-name="e" unicode="e" horiz-adv-x="980" 
d="M72 369v331q0 95 37 170t100 120t139 68t160 23q81 0 154 -24t132 -70t93.5 -121.5t34.5 -171.5v-286h-535v-39q0 -56 44 -88.5t106 -32.5q101 0 161 71l193 -155q-132 -184 -379 -184q-83 0 -160.5 24.5t-140.5 71t-101 122.5t-38 171zM391 635h232v76q0 43 -34.5 67.5
t-80.5 24.5q-48 0 -82.5 -25.5t-34.5 -72.5v-70z" />
    <glyph glyph-name="f" unicode="f" horiz-adv-x="663" 
d="M98 0v1073q0 185 112 291t304 106q64 0 123 -12v-297q-34 8 -63 8q-43 0 -76 -17q-54 -28 -54 -81v-65h185v-287h-185v-719h-346z" />
    <glyph glyph-name="g" unicode="g" horiz-adv-x="1032" 
d="M76 336v371q0 102 38 177t105 116.5t146.5 61t173.5 19.5q210 0 397 -90v-962q0 -243 -115 -360.5t-319 -117.5q-215 0 -373 125l129 226q96 -58 193 -58q161 0 161 160q-64 -24 -159 -24q-73 0 -138.5 21t-120 62.5t-86.5 112t-32 160.5zM412 344q0 -48 31.5 -72
t76.5 -24q46 0 82 22v531q-30 20 -74 20q-50 0 -83 -26t-33 -76v-375z" />
    <glyph glyph-name="h" unicode="h" horiz-adv-x="1052" 
d="M98 0v1450h344v-389q67 20 140 20q169 0 276 -103t107 -288v-690h-344v692q0 43 -29 64.5t-74 21.5q-46 0 -76 -18v-760h-344z" />
    <glyph glyph-name="i" unicode="i" horiz-adv-x="540" 
d="M70 1309q0 62 29.5 106.5t73.5 64.5q43 20 93 19q0 1 2 1q52 0 96 -21t73.5 -65.5t29.5 -104.5t-29.5 -104.5t-73.5 -64.5q-44 -22 -96 -22h-2q-50 0 -93 20q-44 20 -73.5 64.5t-29.5 106.5zM98 0v1061h344v-1061h-344z" />
    <glyph glyph-name="j" unicode="j" horiz-adv-x="542" 
d="M-57 -90v-301q60 -16 116 -16q43 0 83 9q91 23 158.5 78.5t105.5 142.5t38 187v1051h-346v-1047q0 -53 -42 -87q-28 -23 -69 -23q-20 0 -44 6zM72 1313q0 62 29.5 106.5t73.5 64.5q43 20 93 20h2q52 -1 96 -21.5t73.5 -65t29.5 -104.5t-29.5 -104.5t-73.5 -65t-96 -21.5
h-2q-50 0 -93 20q-44 20 -73.5 64.5t-29.5 106.5z" />
    <glyph glyph-name="k" unicode="k" horiz-adv-x="1042" 
d="M98 0v1450h330v-719l227 330h389l-385 -514l383 -547h-405l-209 340v-340h-330z" />
    <glyph glyph-name="l" unicode="l" horiz-adv-x="604" 
d="M88 383v1067h346v-1063q0 -42 25 -69t80 -27q24 0 51 6v-301q-66 -16 -117 -16h-6q-169 0 -273 106q-106 108 -106 297z" />
    <glyph glyph-name="m" unicode="m" horiz-adv-x="1505" 
d="M96 0v975q61 47 158.5 76.5t196.5 29.5q203 0 311 -108q48 51 118.5 79.5t137.5 28.5q114 0 202 -40t142.5 -128t54.5 -215v-698h-344v702q0 30 -21.5 47t-50.5 17q-32 0 -54.5 -16t-22.5 -45v-705h-334v709q0 29 -22.5 44t-55.5 15q-49 0 -76 -27v-741h-340z" />
    <glyph glyph-name="n" unicode="n" horiz-adv-x="1048" 
d="M96 0v995q180 86 387 86h8q91 0 171 -21q83 -22 151.5 -67.5t108 -125t39.5 -185.5v-682h-345v680q0 49 -29 73.5t-73 24.5q-42 0 -72 -12v-766h-346z" />
    <glyph glyph-name="o" unicode="o" horiz-adv-x="1009" 
d="M72 354v336q0 95 36.5 171t98.5 122.5t138 71.5t159 26q66 -1 128 -16t117.5 -47t97.5 -77.5t66.5 -110t24.5 -140.5v-336q0 -90 -37 -163t-99 -118t-138.5 -69t-159.5 -24q-66 1 -128.5 16t-117.5 45.5t-96.5 74t-65.5 105t-24 133.5zM410 350q0 -35 29 -57.5t65 -22.5
t65 22.5t29 57.5v346q0 34 -30 56t-64 22t-64 -22t-30 -56v-346z" />
    <glyph glyph-name="p" unicode="p" horiz-adv-x="1040" 
d="M96 -381v1372q233 90 439 90q432 0 432 -364v-350q0 -117 -56.5 -207t-145.5 -135t-192 -45q-61 0 -129 20v-381h-348zM444 281q31 -15 68 -15h12q41 2 71 26.5t30 72.5v362q0 40 -31 62t-76 22q-34 0 -74 -14v-516z" />
    <glyph glyph-name="q" unicode="q" horiz-adv-x="1040" 
d="M74 354v351q0 86 25 152.5t66 108t100 68t121 37t134 10.5q214 0 424 -94v-1368h-348v379q-64 -18 -131 -18q-108 0 -195 41t-141.5 127.5t-54.5 205.5zM416 367q0 -55 30 -80t74 -25q41 0 76 14v512q-36 19 -78 19t-72 -22t-30 -62v-356z" />
    <glyph glyph-name="r" unicode="r" horiz-adv-x="722" 
d="M88 0v668q0 105 32.5 186t91.5 129.5t135 73t167 24.5q76 0 178 -26v-301q-57 22 -112 22h-4q-58 -1 -100 -35t-42 -90v-651h-346z" />
    <glyph glyph-name="s" unicode="s" horiz-adv-x="872" 
d="M49 152l154 204q105 -78 203 -78q10 0 20 1q36 3 50 26.5t-3 48.5t-59 31q-348 45 -348 356q0 60 24 119t68 109t117 81t161 31q204 0 367 -137l-168 -209q-103 49 -164 49q-12 0 -22 -2q-24 -3 -35.5 -29t6.5 -48q28 -28 80 -41t93 -28t86 -41t74 -58.5t48.5 -82
t19.5 -110.5q0 -88 -32.5 -158.5t-88 -114.5t-125.5 -67.5t-147 -23.5q-231 0 -379 172z" />
    <glyph glyph-name="t" unicode="t" horiz-adv-x="688" 
d="M90 381v919h324l18 -239h182v-293h-182v-367q0 -63 34.5 -92.5t90.5 -29.5q33 0 84 14v-275q-93 -38 -197 -38q-156 0 -255 102t-99 299z" />
    <glyph glyph-name="u" unicode="u" horiz-adv-x="1050" 
d="M90 379v682h344v-680q0 -50 31.5 -74t77.5 -24q35 0 65 12v766h346v-995q-177 -86 -383 -86q-78 0 -146 12t-131 41.5t-107 74t-70.5 114t-26.5 157.5z" />
    <glyph glyph-name="v" unicode="v" horiz-adv-x="1046" 
d="M-6 1061h366l134 -512l30 -209h4l25 211l131 510h371l-379 -1061h-307z" />
    <glyph glyph-name="w" unicode="w" horiz-adv-x="1544" 
d="M6 1061h348l111 -461l33 -221h6l119 661h297l118 -661h6l33 221l111 461h350l-309 -1061h-355l-69 260l-29 178h-6l-33 -178l-69 -260h-355z" />
    <glyph glyph-name="x" unicode="x" horiz-adv-x="1075" 
d="M6 1061h375l108 -187l43 -133h3l38 138l107 182h385l-332 -526q37 -52 88.5 -131.5t82 -129t95.5 -154.5t74 -120h-393l-117 195l-35 118h-4l-37 -120l-110 -193h-369l324 530z" />
    <glyph glyph-name="y" unicode="y" horiz-adv-x="1052" 
d="M90 336v725h334v-703q0 -48 31.5 -72t76.5 -24q44 0 82 23v776h340v-1036q0 -232 -119.5 -355t-320.5 -123q-213 0 -383 144l137 213q106 -64 195 -64q80 0 121 44.5t41 119.5q-65 -24 -160 -24q-73 0 -138.5 21t-119 62.5t-85.5 112t-32 160.5z" />
    <glyph glyph-name="z" unicode="z" horiz-adv-x="935" 
d="M39 106l373 648h-338v307h745l68 -96l-375 -658h360v-307h-755z" />
    <glyph glyph-name="braceleft" unicode="{" horiz-adv-x="718" 
d="M59 446v334q60 0 85.5 30t25.5 77v250q0 155 69 236t234 81h168v-334h-121v-264q0 -69 -41.5 -143t-105.5 -99q69 -25 108 -94.5t39 -148.5v-242h121v-334h-184q-161 0 -224 79t-63 237v227q0 108 -111 108z" />
    <glyph glyph-name="bar" unicode="|" horiz-adv-x="550" 
d="M102 -276v1759h347v-1759h-347z" />
    <glyph glyph-name="braceright" unicode="}" horiz-adv-x="704" 
d="M80 113h104v258q-4 76 44.5 148.5t113.5 96.5q-64 30 -114 99.5t-44 140.5v260h-104v334h141q83 0 140.5 -15.5t90.5 -40t51 -67.5t23.5 -86t5.5 -108v-246q0 -107 113 -107v-334q-113 0 -113 -108v-244q0 -78 -13 -132t-46.5 -97.5t-97 -64.5t-158.5 -21h-137v334z" />
    <glyph glyph-name="asciitilde" unicode="~" horiz-adv-x="999" 
d="M51 590q73 107 150.5 170t169.5 63q47 0 94.5 -23.5t79 -47.5t64.5 -38t65.5 5.5t66.5 81.5l209 -174q-147 -252 -329 -252q-42 0 -85 20t-73 40.5t-61 33.5t-61.5 -2.5t-61.5 -67.5z" />
    <glyph glyph-name="uni00A0" unicode="&#xa0;" horiz-adv-x="372" 
 />
    <glyph glyph-name="exclamdown" unicode="&#xa1;" horiz-adv-x="546" 
d="M72 852q0 86 56 143.5t144 57.5q87 0 146 -58t59 -143q0 -89 -58.5 -147t-146.5 -58q-89 0 -144.5 57.5t-55.5 147.5zM98 -377v973h351v-973h-351z" />
    <glyph glyph-name="cent" unicode="&#xa2;" horiz-adv-x="978" 
d="M82 375v309q0 149 86 244.5t221 128.5v145h262v-149q199 -60 258 -271l-291 -90q-8 37 -31 60.5t-50.5 28t-54 -2.5t-44.5 -30.5t-18 -55.5v-323q0 -33 18 -56t45.5 -29.5t56.5 -2t54.5 27t36.5 58.5l299 -68q-37 -118 -111 -189t-168 -102v-149h-262v143
q-135 33 -221 128.5t-86 244.5z" />
    <glyph glyph-name="sterling" unicode="&#xa3;" horiz-adv-x="1085" 
d="M76 0v324h160v229h-160v313h160v154q0 62 13 120.5t45 116.5t80.5 101t126 69.5t175.5 26.5q87 0 182 -42t168 -128l-203 -194q-41 45 -97.5 49.5t-98 -31.5t-41.5 -98v-144h344v-313h-344v-229h422v-324h-932z" />
    <glyph glyph-name="yen" unicode="&#xa5;" horiz-adv-x="1458" 
d="M39 1450h426l262 -553l262 553h430l-411 -711h145l-47 -221h-195v-63h242l-47 -222h-195v-233h-366v233h-223l45 222h178v63h-223l45 221h82z" />
    <glyph glyph-name="section" unicode="&#xa7;" horiz-adv-x="972" 
d="M66 678q0 146 102 217q-31 37 -48.5 85.5t-17.5 92.5q0 115 59.5 203.5t150.5 132t196 43.5q100 0 184.5 -50.5t161.5 -166.5l-242 -145q-27 44 -65.5 53t-66 -12.5t-27.5 -57.5q0 -28 25 -51t65.5 -41.5t89 -38t97 -47t89 -61.5t65.5 -88t25 -121q0 -59 -25.5 -113
t-72.5 -92q78 -99 78 -217q0 -150 -122 -260.5t-290 -110.5q-113 0 -221.5 63t-181.5 181l239 160q37 -53 94 -73t98.5 -3.5t41.5 55.5q0 25 -26.5 48.5t-69 45.5t-93.5 46t-102.5 55t-94 67.5t-69 88.5t-26.5 112zM359.5 688q11.5 -40 68.5 -63l164 -78q49 52 0.5 102
t-193.5 109q-51 -30 -39.5 -70z" />
    <glyph glyph-name="dieresis" unicode="&#xa8;" horiz-adv-x="1044" 
d="M102 1708q0 73 50 123.5t122 50.5t122 -50.5t50 -123.5q0 -71 -50 -120.5t-122 -49.5t-122 49.5t-50 120.5zM596 1708q0 74 49 124t123 50t124 -50t50 -124q0 -71 -50.5 -120.5t-123.5 -49.5q-74 0 -123 49.5t-49 120.5z" />
    <glyph glyph-name="copyright" unicode="&#xa9;" horiz-adv-x="1593" 
d="M61 719q0 148 58.5 284t157.5 235t236 157.5t286 58.5q148 0 284 -58.5t234 -157.5t156.5 -235t58.5 -284q0 -200 -98.5 -369t-267.5 -267.5t-367 -98.5q-120 0 -232.5 37t-203 105t-159 158.5t-106 202.5t-37.5 232zM272 719q0 -143 70 -264t191.5 -191.5t265.5 -70.5
q142 0 262.5 70.5t190 191.5t69.5 264q0 144 -70 264.5t-190 190t-262 69.5q-220 0 -373.5 -152.5t-153.5 -371.5zM406 600q0 -67 22 -123.5t60 -96t88.5 -67t106.5 -40.5t116 -13q61 0 120 14.5t113.5 44t96.5 81.5t61 120l-197 74q-13 -45 -45 -75.5t-71.5 -42.5
t-83.5 -10t-81 17.5t-63 45.5t-31 69v231q6 47 41.5 81t84.5 44.5t99.5 5t92.5 -39t57 -86.5l193 73q-25 90 -89.5 151t-139.5 85t-158 24q-60 0 -116 -13t-106.5 -40.5t-88.5 -67t-60 -96t-22 -123.5v-227z" />
    <glyph glyph-name="ordfeminine" unicode="&#xaa;" horiz-adv-x="761" 
d="M61 913q0 69 27.5 121t70 79t95.5 39.5t104 9.5t95 -17q-3 53 -51 74t-109 8t-103 -51l-114 106q34 52 84 88.5t105.5 51.5t113.5 16.5t110.5 -18.5t94 -53t66 -86.5t24.5 -119.5v-477q-86 -23 -166 -34.5t-163.5 -6.5t-144.5 31t-100 87t-39 152zM283 907q0 -40 27 -62
t61.5 -22t66.5 6v136q-31 11 -64.5 11.5t-61 -18.5t-29.5 -51z" />
    <glyph glyph-name="guillemotleft" unicode="&#xab;" horiz-adv-x="1253" 
d="M39 588l328 485l297 -176l-211 -309l213 -314l-301 -176zM567 588l328 485l297 -176l-213 -313l217 -308l-301 -178z" />
    <glyph glyph-name="logicalnot" unicode="&#xac;" horiz-adv-x="1181" 
d="M82 532v347h997v-617h-344v270h-653z" />
    <glyph glyph-name="uni00AD" unicode="&#xad;" horiz-adv-x="827" 
d="M94 420v348h639v-348h-639z" />
    <glyph glyph-name="registered" unicode="&#xae;" horiz-adv-x="1593" 
d="M61 719q0 148 58.5 284t157.5 235t236 157.5t286 58.5q148 0 284 -58.5t234 -157.5t156.5 -235t58.5 -284q0 -200 -98.5 -369t-267.5 -267.5t-367 -98.5q-120 0 -232.5 37t-203 105t-159 158.5t-106 202.5t-37.5 232zM281 719q0 -106 41.5 -202.5t111 -166.5
t166.5 -111.5t203 -41.5q140 0 259.5 70t189 190.5t69.5 261.5q0 106 -41 202.5t-110.5 166t-165.5 110.5t-201 41q-107 0 -203.5 -41t-166.5 -110.5t-111 -166t-41 -202.5zM500 346v733h331q79 0 140 -29t93.5 -74.5t43.5 -101.5t-1.5 -109t-49 -98t-92.5 -67l176 -254
h-238l-160 240h-43v-240h-200zM700 750h125q31 0 52 16t25 39t-1 45.5t-26.5 38.5t-51.5 16h-123v-155z" />
    <glyph glyph-name="macron" unicode="&#xaf;" horiz-adv-x="813" 
d="M102 1552v275h609v-275h-609z" />
    <glyph glyph-name="degree" unicode="&#xb0;" horiz-adv-x="772" 
d="M49 1141q0 140 99 238t239 98q139 0 237.5 -98t98.5 -238q0 -138 -99.5 -238t-236.5 -100q-139 0 -238.5 99.5t-99.5 238.5zM285 1137q0 -42 29 -70.5t73 -28.5t73 28.5t29 70.5t-29.5 74t-72.5 32t-72.5 -32t-29.5 -74z" />
    <glyph glyph-name="plusminus" unicode="&#xb1;" horiz-adv-x="1103" 
d="M90 27v344h924v-344h-924zM92 717v348h283v270h348v-270h289v-348h-289v-268h-348v268h-283z" />
    <glyph glyph-name="acute" unicode="&#xb4;" horiz-adv-x="790" 
d="M205 1548l205 340h381l-269 -340h-317z" />
    <glyph glyph-name="uni00B5" unicode="&#xb5;" horiz-adv-x="1081" 
d="M96 -352v1409h350v-635q0 -38 19 -65t46 -33.5t54.5 -1t46.5 32t19 65.5v637h352l4 -1061l-299 2l-12 78q-54 -79 -120.5 -77.5t-109.5 71.5v-422h-350z" />
    <glyph glyph-name="paragraph" unicode="&#xb6;" horiz-adv-x="1353" 
d="M47 930q0 94 32 180.5t92.5 156t158 111t219.5 41.5h688v-1589h-344v1257h-82v-1257h-344v616q-100 13 -181.5 59.5t-132.5 113t-78.5 146.5t-27.5 165z" />
    <glyph glyph-name="periodcentered" unicode="&#xb7;" horiz-adv-x="540" 
d="M68 621q0 88 57 147t147 59q87 0 144 -59.5t57 -146.5q0 -85 -57 -143t-144 -58q-90 0 -147 57.5t-57 143.5z" />
    <glyph glyph-name="cedilla" unicode="&#xb8;" horiz-adv-x="788" 
d="M102 -416l66 176q47 -32 94 -49t85.5 -11t47.5 42q11 36 -33.5 68t-121.5 38l104 234h256l-65 -145q79 -21 120 -75t36.5 -117.5t-36 -124t-100.5 -100.5t-154 -40q-173 0 -299 104z" />
    <glyph glyph-name="ordmasculine" unicode="&#xba;" horiz-adv-x="839" 
d="M68 915v246q0 98 53 169t131 103.5t168 32.5t168 -32.5t131 -103.5t53 -169v-246q0 -97 -53 -168t-131.5 -104t-167.5 -33t-167.5 33t-131.5 104t-53 168zM344 915q1 -32 24.5 -51t51.5 -19.5t51.5 18t24.5 52.5v244q-1 45 -39 64t-75.5 0.5t-37.5 -62.5v-246z" />
    <glyph glyph-name="guillemotright" unicode="&#xbb;" horiz-adv-x="1232" 
d="M57 274l215 314l-211 309l295 178l330 -487l-326 -488zM569 899l301 174l326 -485l-328 -490l-297 178l211 312z" />
    <glyph glyph-name="questiondown" unicode="&#xbf;" horiz-adv-x="997" 
d="M49 12q0 -85 29 -161t78 -132t115 -95.5t138.5 -57t151 -11.5t150 35.5t137 90.5t110.5 147l-208 178q-30 -56 -88.5 -81.5t-113.5 -18.5t-96.5 41.5t-41.5 87.5q0 74 49.5 123t125 56.5t165.5 -26.5l-21 459h-307l-21 -231q-71 -10 -130 -38.5t-99.5 -68t-68.5 -88.5
t-41 -101.5t-13 -107.5zM391 891q0 78 53.5 132t130.5 54q78 0 132.5 -54t54.5 -132q0 -81 -54 -132.5t-133 -51.5q-78 0 -131 51.5t-53 132.5z" />
    <glyph glyph-name="Agrave" unicode="&#xc0;" 
d="M-12 0l506 1450h333l519 -1450h-394l-94 291h-387l-90 -291h-393zM287 1888h381l204 -340h-317zM553 616h217l-100 424h-11z" />
    <glyph glyph-name="Aacute" unicode="&#xc1;" 
d="M-12 0l506 1450h333l519 -1450h-394l-94 291h-387l-90 -291h-393zM453 1548l204 340h381l-268 -340h-317zM553 616h217l-100 424h-11z" />
    <glyph glyph-name="Acircumflex" unicode="&#xc2;" 
d="M-12 0l506 1450h333l519 -1450h-394l-94 291h-387l-90 -291h-393zM227 1548l316 344h239l308 -344h-332l-94 107l-91 -107h-346zM553 616h217l-100 424h-11z" />
    <glyph glyph-name="Atilde" unicode="&#xc3;" 
d="M-12 0l506 1450h333l519 -1450h-394l-94 291h-387l-90 -291h-393zM270 1634q23 123 89 184t171 58q32 -1 71 -16.5t69 -31t60.5 -24.5t56 5.5t44.5 58.5l187 -107q-29 -114 -83.5 -173t-129.5 -58q-43 0 -91 16t-82.5 31.5t-68.5 24t-62.5 -7t-51.5 -60.5zM553 616h217
l-100 424h-11z" />
    <glyph glyph-name="Adieresis" unicode="&#xc4;" 
d="M-12 0l506 1450h333l519 -1450h-394l-94 291h-387l-90 -291h-393zM244 1708q0 73 50 123.5t122 50.5t122 -50.5t50 -123.5q0 -71 -50 -120.5t-122 -49.5t-122 49.5t-50 120.5zM553 616h217l-100 424h-11zM737 1708q0 74 49 124t123 50q73 0 123.5 -50t50.5 -124
q0 -71 -50.5 -120.5t-123.5 -49.5q-74 0 -123 49.5t-49 120.5z" />
    <glyph glyph-name="Aring" unicode="&#xc5;" 
d="M-12 0l491 1409q-82 76 -82 190q0 109 78.5 188t190.5 79q109 0 185.5 -82t76.5 -187q0 -113 -84 -190l502 -1407h-394l-94 291h-387l-90 -291h-393zM553 616h217l-100 424h-11zM588 1595q0 -26 22 -48.5t56 -22.5q32 0 52.5 19t20.5 52t-21.5 57.5t-51.5 24.5
q-35 0 -56.5 -24t-21.5 -58z" />
    <glyph glyph-name="AE" unicode="&#xc6;" horiz-adv-x="1708" 
d="M-27 0l619 1450h1034v-360h-502v-191h451v-354h-451v-195h502v-350h-850v393h-221l-141 -393h-441zM647 707h148l8 368h-17z" />
    <glyph glyph-name="Ccedilla" unicode="&#xc7;" horiz-adv-x="1191" 
d="M80 475v500q0 119 49 215t131 156t184 92t213 32q71 0 139 -16.5t137.5 -52.5t130.5 -103.5t103 -160.5l-299 -121q-35 64 -107 93.5t-141 22t-121.5 -49.5t-52.5 -107v-500q0 -50 34.5 -88.5t86.5 -52.5t108 -10.5t106 38t73 91.5l320 -148q-64 -126 -164.5 -202.5
t-218.5 -106.5l-27 -59q57 -15 94.5 -48t50.5 -74.5t11 -87.5t-26 -90t-59 -79t-89 -56.5t-115 -21.5q-173 0 -299 104l65 176q47 -32 94.5 -49t86 -11t47.5 42q11 36 -34 68t-122 38l63 142q-93 15 -173 53t-143 97.5t-99.5 145.5t-36.5 189z" />
    <glyph glyph-name="Egrave" unicode="&#xc8;" horiz-adv-x="1204" 
d="M115 0v1450h1009v-344h-639v-225h588v-318h-588v-217h639v-346h-1009zM256 1888h381l205 -340h-318z" />
    <glyph glyph-name="Eacute" unicode="&#xc9;" horiz-adv-x="1204" 
d="M115 0v1450h1009v-344h-639v-225h588v-318h-588v-217h639v-346h-1009zM422 1548l205 340h381l-269 -340h-317z" />
    <glyph glyph-name="Ecircumflex" unicode="&#xca;" horiz-adv-x="1204" 
d="M115 0v1450h1009v-344h-639v-225h588v-318h-588v-217h639v-346h-1009zM197 1548l315 344h240l307 -344h-332l-94 107l-90 -107h-346z" />
    <glyph glyph-name="Edieresis" unicode="&#xcb;" horiz-adv-x="1204" 
d="M115 0v1450h1009v-344h-639v-225h588v-318h-588v-217h639v-346h-1009zM213 1708q0 73 50 123.5t122 50.5t122 -50.5t50 -123.5q0 -71 -50 -120.5t-122 -49.5t-122 49.5t-50 120.5zM707 1708q0 74 49 124t123 50q73 0 123.5 -50t50.5 -124q0 -71 -50.5 -120.5
t-123.5 -49.5q-74 0 -123 49.5t-49 120.5z" />
    <glyph glyph-name="Igrave" unicode="&#xcc;" horiz-adv-x="595" 
d="M-78 1888h381l205 -340h-318zM115 0v1450h366v-1450h-366z" />
    <glyph glyph-name="Iacute" unicode="&#xcd;" horiz-adv-x="595" 
d="M88 1548l205 340h381l-268 -340h-318zM115 0v1450h366v-1450h-366z" />
    <glyph glyph-name="Icircumflex" unicode="&#xce;" horiz-adv-x="595" 
d="M-117 1548l295 344h240l287 -344h-332l-74 103l-70 -103h-346zM115 0v1450h366v-1450h-366z" />
    <glyph glyph-name="Idieresis" unicode="&#xcf;" horiz-adv-x="595" 
d="M-88 1708q0 73 50 123.5t122 50.5t122 -50.5t50 -123.5q0 -71 -50 -120.5t-122 -49.5t-122 49.5t-50 120.5zM115 0v1450h366v-1450h-366zM344 1708q0 74 49 124t123 50t124 -50t50 -124q0 -71 -50.5 -120.5t-123.5 -49.5q-74 0 -123 49.5t-49 120.5z" />
    <glyph glyph-name="Eth" unicode="&#xd0;" horiz-adv-x="1314" 
d="M29 584v293h98v573h586q113 0 205.5 -28t164 -84.5t111 -150t39.5 -216.5v-494q0 -122 -39.5 -215t-111 -149.5t-164.5 -84.5t-205 -28h-586v584h-98zM498 360h215q73 0 112 29.5t39 87.5v494q0 119 -151 119h-215v-213h170v-293h-170v-224z" />
    <glyph glyph-name="Ntilde" unicode="&#xd1;" horiz-adv-x="1384" 
d="M115 0v1450h348l350 -619l123 -290l10 2q-1 0 -20.5 125t-20.5 125v657h365v-1450h-371l-328 571l-127 291l-10 -2l47 -280v-580h-366zM309 1626q23 123 89 184t171 58q32 -1 71 -16.5t69 -31t60.5 -24.5t56 5.5t44.5 58.5l187 -107q-29 -114 -83.5 -173t-129.5 -58
q-43 0 -91.5 16t-82.5 31.5t-68 24t-63 -7t-52 -60.5z" />
    <glyph glyph-name="Ograve" unicode="&#xd2;" horiz-adv-x="1361" 
d="M80 477v496q0 97 33.5 179.5t91 140t134.5 98t163 60t178 19.5t178.5 -19.5t163.5 -60t135 -98.5t91.5 -140t33.5 -179v-496q0 -97 -33.5 -179t-91 -140t-134.5 -98.5t-163 -60t-178 -19.5t-178.5 19.5t-163.5 60t-135 98.5t-91.5 140t-33.5 179zM303 1892h381l205 -340
h-318zM446 477q0 -75 70 -116.5t166 -41.5q95 0 164 42t69 116v496q0 54 -35.5 92t-88.5 55t-115 17q-92 0 -161 -44.5t-69 -119.5v-496z" />
    <glyph glyph-name="Oacute" unicode="&#xd3;" horiz-adv-x="1361" 
d="M80 477v496q0 97 33.5 179.5t91 140t134.5 98t163 60t178 19.5t178.5 -19.5t163.5 -60t135 -98.5t91.5 -140t33.5 -179v-496q0 -97 -33.5 -179t-91 -140t-134.5 -98.5t-163 -60t-178 -19.5t-178.5 19.5t-163.5 60t-135 98.5t-91.5 140t-33.5 179zM446 477
q0 -75 70 -116.5t166 -41.5q95 0 164 42t69 116v496q0 54 -35.5 92t-88.5 55t-115 17q-92 0 -161 -44.5t-69 -119.5v-496zM469 1552l205 340h381l-269 -340h-317z" />
    <glyph glyph-name="Ocircumflex" unicode="&#xd4;" horiz-adv-x="1361" 
d="M80 477v496q0 97 33.5 179.5t91 140t134.5 98t163 60t178 19.5t178.5 -19.5t163.5 -60t135 -98.5t91.5 -140t33.5 -179v-496q0 -97 -33.5 -179t-91 -140t-134.5 -98.5t-163 -60t-178 -19.5t-178.5 19.5t-163.5 60t-135 98.5t-91.5 140t-33.5 179zM244 1552l315 344h240
l307 -344h-332l-94 107l-90 -107h-346zM446 477q0 -75 70 -116.5t166 -41.5q95 0 164 42t69 116v496q0 54 -35.5 92t-88.5 55t-115 17q-92 0 -161 -44.5t-69 -119.5v-496z" />
    <glyph glyph-name="Otilde" unicode="&#xd5;" horiz-adv-x="1361" 
d="M80 477v496q0 97 33.5 179.5t91 140t134.5 98t163 60t178 19.5t178.5 -19.5t163.5 -60t135 -98.5t91.5 -140t33.5 -179v-496q0 -97 -33.5 -179t-91 -140t-134.5 -98.5t-163 -60t-178 -19.5t-178.5 19.5t-163.5 60t-135 98.5t-91.5 140t-33.5 179zM293 1630q23 123 89 184
t171 58q32 -1 71 -16.5t69 -31t60.5 -24.5t56 5.5t44.5 58.5l186 -107q-29 -114 -83.5 -173t-129.5 -58q-43 0 -91 16t-82.5 31.5t-68.5 24t-62.5 -7t-51.5 -60.5zM446 477q0 -75 70 -116.5t166 -41.5q95 0 164 42t69 116v496q0 54 -35.5 92t-88.5 55t-115 17
q-92 0 -161 -44.5t-69 -119.5v-496z" />
    <glyph glyph-name="Odieresis" unicode="&#xd6;" horiz-adv-x="1361" 
d="M80 477v496q0 97 33.5 179.5t91 140t134.5 98t163 60t178 19.5t178.5 -19.5t163.5 -60t135 -98.5t91.5 -140t33.5 -179v-496q0 -97 -33.5 -179t-91 -140t-134.5 -98.5t-163 -60t-178 -19.5t-178.5 19.5t-163.5 60t-135 98.5t-91.5 140t-33.5 179zM260 1712q0 73 50 123.5
t122 50.5t122 -50.5t50 -123.5q0 -71 -50 -120.5t-122 -49.5t-122 49.5t-50 120.5zM446 477q0 -75 70 -116.5t166 -41.5q95 0 164 42t69 116v496q0 54 -35.5 92t-88.5 55t-115 17q-92 0 -161 -44.5t-69 -119.5v-496zM754 1712q0 74 49 124t123 50t124 -50t50 -124
q0 -71 -50.5 -120.5t-123.5 -49.5q-74 0 -123 49.5t-49 120.5z" />
    <glyph glyph-name="Oslash" unicode="&#xd8;" horiz-adv-x="1361" 
d="M80 477v496q0 97 33.5 179.5t91 140t134.5 98t163 60t178 19.5q50 0 100 -6l74 191l322 -107l-80 -202q186 -138 186 -373v-496q0 -97 -33.5 -179t-91 -140t-134.5 -98.5t-163 -60t-178 -19.5q-50 0 -96 6l-80 -197l-324 115l86 200q-188 136 -188 373zM446 477
q0 -75 70 -116.5t166 -41.5q95 0 164 42t69 116v496q0 54 -35.5 92t-88.5 55t-115 17q-92 0 -161 -44.5t-69 -119.5v-496z" />
    <glyph glyph-name="Ugrave" unicode="&#xd9;" horiz-adv-x="1366" 
d="M106 485v965h371v-965q0 -48 23 -85.5t59.5 -57t80.5 -28.5t88.5 0t81 28.5t60 57t23.5 85.5v965h371v-965q0 -140 -64.5 -250t-166.5 -166.5t-226 -83t-247 0t-225 83t-165.5 166.5t-63.5 250zM309 1888h381l205 -340h-317z" />
    <glyph glyph-name="Uacute" unicode="&#xda;" horiz-adv-x="1366" 
d="M106 485v965h371v-965q0 -48 23 -85.5t59.5 -57t80.5 -28.5t88.5 0t81 28.5t60 57t23.5 85.5v965h371v-965q0 -140 -64.5 -250t-166.5 -166.5t-226 -83t-247 0t-225 83t-165.5 166.5t-63.5 250zM475 1548l205 340h381l-268 -340h-318z" />
    <glyph glyph-name="Ucircumflex" unicode="&#xdb;" horiz-adv-x="1366" 
d="M106 485v965h371v-965q0 -48 23 -85.5t59.5 -57t80.5 -28.5t88.5 0t81 28.5t60 57t23.5 85.5v965h371v-965q0 -140 -64.5 -250t-166.5 -166.5t-226 -83t-247 0t-225 83t-165.5 166.5t-63.5 250zM250 1548l315 344h240l307 -344h-332l-94 107l-90 -107h-346z" />
    <glyph glyph-name="Udieresis" unicode="&#xdc;" horiz-adv-x="1366" 
d="M106 485v965h371v-965q0 -48 23 -85.5t59.5 -57t80.5 -28.5t88.5 0t81 28.5t60 57t23.5 85.5v965h371v-965q0 -140 -64.5 -250t-166.5 -166.5t-226 -83t-247 0t-225 83t-165.5 166.5t-63.5 250zM266 1708q0 73 50 123.5t122 50.5t122 -50.5t50 -123.5q0 -71 -50 -120.5
t-122 -49.5t-122 49.5t-50 120.5zM760 1708q0 74 49 124t123 50t124 -50t50 -124q0 -71 -50.5 -120.5t-123.5 -49.5q-74 0 -123 49.5t-49 120.5z" />
    <glyph glyph-name="Yacute" unicode="&#xdd;" horiz-adv-x="1341" 
d="M-18 1450h426l262 -532l262 532h430l-508 -879v-571h-367v571zM453 1548l204 340h381l-268 -340h-317z" />
    <glyph glyph-name="Thorn" unicode="&#xde;" horiz-adv-x="1138" 
d="M115 2v1462h370v-231h21q293 0 445.5 -124.5t152.5 -367.5q0 -109 -35.5 -194t-93.5 -138.5t-140 -87.5t-167 -47.5t-183 -13.5v-258h-370zM485 584q147 -17 220 58q54 56 38 129q-17 74 -97 109q-67 30 -161 19v-315z" />
    <glyph glyph-name="germandbls" unicode="&#xdf;" horiz-adv-x="1179" 
d="M98 0v1038q-1 104 40 188t110 136t155 80t179 28q72 0 139.5 -16t127.5 -50.5t105 -83t71 -118.5t26 -153q0 -49 -10.5 -98t-46.5 -109t-95 -99q89 -32 145.5 -101t72.5 -149t1.5 -164.5t-57.5 -152.5q-58 -95 -168 -145.5t-236 -50.5q-71 0 -147 18v324q88 -44 164 3.5
t76 129.5q0 57 -42 90t-106 33h-92v311q111 -23 164 46q41 53 24 120q-17 65 -76 85q-21 7 -44 7q-55 0 -94.5 -32.5t-39.5 -90.5v-1024h-346z" />
    <glyph glyph-name="agrave" unicode="&#xe0;" horiz-adv-x="989" 
d="M47 332q0 144 103.5 237t295.5 93q70 0 123 -9q8 152 -143 152q-98 0 -184 -76l-160 162q71 96 176 143t225 47q83 0 157.5 -23t133.5 -68t94 -119.5t35 -168.5v-651q-196 -71 -409 -71q-222 0 -334.5 91.5t-112.5 260.5zM137 1483h367l196 -326h-305zM371 334
q0 -38 18.5 -61t49 -30.5t62 -6t64.5 9.5v182q-71 23 -132.5 -4t-61.5 -90z" />
    <glyph glyph-name="aacute" unicode="&#xe1;" horiz-adv-x="989" 
d="M47 332q0 144 103.5 237t295.5 93q70 0 123 -9q8 152 -143 152q-98 0 -184 -76l-160 162q71 96 176 143t225 47q83 0 157.5 -23t133.5 -68t94 -119.5t35 -168.5v-651q-196 -71 -409 -71q-222 0 -334.5 91.5t-112.5 260.5zM276 1157l197 326h367l-258 -326h-306zM371 334
q0 -38 18.5 -61t49 -30.5t62 -6t64.5 9.5v182q-71 23 -132.5 -4t-61.5 -90z" />
    <glyph glyph-name="acircumflex" unicode="&#xe2;" horiz-adv-x="989" 
d="M47 332q0 144 103.5 237t295.5 93q70 0 123 -9q8 152 -143 152q-98 0 -184 -76l-160 162q71 96 176 143t225 47q83 0 157.5 -23t133.5 -68t94 -119.5t35 -168.5v-651q-196 -71 -409 -71q-222 0 -334.5 91.5t-112.5 260.5zM80 1157l303 330h231l295 -330h-319l-90 100
l-86 -100h-334zM371 334q0 -38 18.5 -61t49 -30.5t62 -6t64.5 9.5v182q-71 23 -132.5 -4t-61.5 -90z" />
    <glyph glyph-name="atilde" unicode="&#xe3;" horiz-adv-x="989" 
d="M47 332q0 144 103.5 237t295.5 93q70 0 123 -9q8 152 -143 152q-98 0 -184 -76l-160 162q71 96 176 143t225 47q83 0 157.5 -23t133.5 -68t94 -119.5t35 -168.5v-651q-196 -71 -409 -71q-222 0 -334.5 91.5t-112.5 260.5zM137 1239q44 237 250 231q30 -1 68 -16
t67.5 -29.5t58.5 -22.5t53.5 6t41.5 56l180 -102q-28 -109 -80.5 -166.5t-124.5 -56.5q-41 0 -87.5 15.5t-79.5 30.5t-65.5 23.5t-60 -6.5t-49.5 -59zM371 334q0 -38 18.5 -61t49 -30.5t62 -6t64.5 9.5v182q-71 23 -132.5 -4t-61.5 -90z" />
    <glyph glyph-name="adieresis" unicode="&#xe4;" horiz-adv-x="989" 
d="M47 332q0 144 103.5 237t295.5 93q70 0 123 -9q8 152 -143 152q-98 0 -184 -76l-160 162q71 96 176 143t225 47q83 0 157.5 -23t133.5 -68t94 -119.5t35 -168.5v-651q-196 -71 -409 -71q-222 0 -334.5 91.5t-112.5 260.5zM102 1319q0 72 48.5 121t119.5 49t120.5 -49
t49.5 -121q0 -69 -49.5 -117.5t-120.5 -48.5q-70 0 -119 48.5t-49 117.5zM371 334q0 -38 18.5 -61t49 -30.5t62 -6t64.5 9.5v182q-71 23 -132.5 -4t-61.5 -90zM545 1319q0 72 48.5 121t121.5 49q72 0 121 -49t49 -121q0 -69 -49 -117.5t-121 -48.5q-73 0 -121.5 48
t-48.5 118z" />
    <glyph glyph-name="aring" unicode="&#xe5;" horiz-adv-x="989" 
d="M47 332q0 144 103.5 237t295.5 93q70 0 123 -9q8 152 -143 152q-98 0 -184 -76l-160 162q71 96 176 143t225 47q83 0 157.5 -23t133.5 -68t94 -119.5t35 -168.5v-651q-196 -71 -409 -71q-222 0 -334.5 91.5t-112.5 260.5zM233 1395q0 108 80 183t193 75q110 0 188 -78.5
t78 -181.5q0 -104 -78.5 -179t-187.5 -75q-114 0 -193.5 73.5t-79.5 182.5zM371 334q0 -38 18.5 -61t49 -30.5t62 -6t64.5 9.5v182q-71 23 -132.5 -4t-61.5 -90zM428 1391q0 -26 22 -49t56 -23q32 0 53 19.5t21 52.5t-22 57.5t-52 24.5q-35 0 -56.5 -24t-21.5 -58z" />
    <glyph glyph-name="ae" unicode="&#xe6;" horiz-adv-x="1447" 
d="M47 344q0 144 101 236t292 92q68 0 115 -8q0 71 -52.5 107.5t-126 25.5t-130.5 -66l-162 154q66 98 163 147t212 49q77 0 153 -28.5t115 -83.5q112 112 268 112q105 0 193 -44.5t144.5 -136t56.5 -212.5v-301h-510v-16q0 -35 23.5 -65t58.5 -43t80.5 2t84.5 63l203 -162
q-149 -186 -342 -186q-159 0 -266 104q-42 -54 -117.5 -79t-159.5 -25q-79 0 -147.5 20.5t-126 62t-90.5 114t-33 167.5zM365 342q0 -45 23 -72t76.5 -35.5t141.5 17.5q-22 72 -22 121v71q-75 25 -147 -5t-72 -97zM872 608h215v92q0 32 -22 54.5t-54 28t-63.5 0.5t-53.5 -28
t-22 -57v-90z" />
    <glyph glyph-name="ccedilla" unicode="&#xe7;" horiz-adv-x="946" 
d="M72 358v334q0 94 37.5 170t99.5 122.5t138.5 71.5t158.5 25q46 0 90 -8t91.5 -29t87 -52.5t73 -83t51.5 -117.5l-291 -91q-8 44 -38.5 67.5t-67.5 23.5t-64.5 -25t-27.5 -66v-340q0 -41 28 -65.5t68 -24.5q37 0 69.5 22.5t45.5 65.5l299 -67q-39 -119 -114.5 -190.5
t-170.5 -102.5l-37 -80q63 -17 103 -57t51 -88t-1.5 -100t-45 -95t-89 -70.5t-124.5 -27.5q-167 0 -287 100l61 168q47 -30 91.5 -46.5t81.5 -10.5t46 41q12 38 -30 71t-133 33l65 154q-140 29 -227.5 120t-87.5 248z" />
    <glyph glyph-name="egrave" unicode="&#xe8;" horiz-adv-x="980" 
d="M72 369v331q0 95 37 170t100 120t139 68t160 23q81 0 154 -24t132 -70t93.5 -121.5t34.5 -171.5v-286h-535v-39q0 -56 44 -88.5t106 -32.5q101 0 161 71l193 -155q-132 -184 -379 -184q-83 0 -160.5 24.5t-140.5 71t-101 122.5t-38 171zM145 1483h367l197 -326h-306z
M391 635h232v76q0 43 -34.5 67.5t-80.5 24.5q-48 0 -82.5 -25.5t-34.5 -72.5v-70z" />
    <glyph glyph-name="eacute" unicode="&#xe9;" horiz-adv-x="980" 
d="M72 369v331q0 95 37 170t100 120t139 68t160 23q81 0 154 -24t132 -70t93.5 -121.5t34.5 -171.5v-286h-535v-39q0 -56 44 -88.5t106 -32.5q101 0 161 71l193 -155q-132 -184 -379 -184q-83 0 -160.5 24.5t-140.5 71t-101 122.5t-38 171zM305 1157l197 326h366l-258 -326
h-305zM391 635h232v76q0 43 -34.5 67.5t-80.5 24.5q-48 0 -82.5 -25.5t-34.5 -72.5v-70z" />
    <glyph glyph-name="ecircumflex" unicode="&#xea;" horiz-adv-x="980" 
d="M72 369v331q0 95 37 170t100 120t139 68t160 23q81 0 154 -24t132 -70t93.5 -121.5t34.5 -171.5v-286h-535v-39q0 -56 44 -88.5t106 -32.5q101 0 161 71l193 -155q-132 -184 -379 -184q-83 0 -160.5 24.5t-140.5 71t-101 122.5t-38 171zM88 1157l303 330h232l295 -330
h-320l-90 100l-86 -100h-334zM391 635h232v76q0 43 -34.5 67.5t-80.5 24.5q-48 0 -82.5 -25.5t-34.5 -72.5v-70z" />
    <glyph glyph-name="edieresis" unicode="&#xeb;" horiz-adv-x="980" 
d="M72 369v331q0 95 37 170t100 120t139 68t160 23q81 0 154 -24t132 -70t93.5 -121.5t34.5 -171.5v-286h-535v-39q0 -56 44 -88.5t106 -32.5q101 0 161 71l193 -155q-132 -184 -379 -184q-83 0 -160.5 24.5t-140.5 71t-101 122.5t-38 171zM100 1319q0 73 50 123.5t122 50.5
t122 -50.5t50 -123.5q0 -71 -50 -120.5t-122 -49.5t-122 49.5t-50 120.5zM391 635h232v76q0 43 -34.5 67.5t-80.5 24.5q-48 0 -82.5 -25.5t-34.5 -72.5v-70zM555 1319q0 74 49 124t123 50q73 0 123.5 -50.5t50.5 -123.5q0 -71 -50.5 -120.5t-123.5 -49.5q-74 0 -123 49.5
t-49 120.5z" />
    <glyph glyph-name="igrave" unicode="&#xec;" horiz-adv-x="548" 
d="M-57 1499h340l204 -340h-297zM98 0v1061h353v-1061h-353z" />
    <glyph glyph-name="iacute" unicode="&#xed;" horiz-adv-x="548" 
d="M68 1159l204 340h340l-247 -340h-297zM98 0v1061h353v-1061h-353z" />
    <glyph glyph-name="icircumflex" unicode="&#xee;" horiz-adv-x="548" 
d="M-104 1159l262 344h239l254 -344h-311l-61 80l-58 -80h-325zM98 0v1061h353v-1061h-353z" />
    <glyph glyph-name="idieresis" unicode="&#xef;" horiz-adv-x="548" 
d="M-98 1288q0 66 48.5 112t117.5 46q70 0 119 -46t49 -112q0 -64 -48.5 -108.5t-119.5 -44.5q-69 0 -117.5 44.5t-48.5 108.5zM98 0v1061h353v-1061h-353zM299 1288q0 67 47.5 112.5t120.5 45.5q70 0 119 -46t49 -112q0 -64 -48.5 -108.5t-119.5 -44.5q-73 0 -120.5 44
t-47.5 109z" />
    <glyph glyph-name="eth" unicode="&#xf0;" horiz-adv-x="1032" 
d="M76 354v361q0 239 221 332q62 24 146 24t149 -24q8 76 -49 122l-25 -61l-139 45l22 53q-77 -7 -131 -43l-120 164q143 125 337 125l41 109l154 -58l-31 -78q128 -44 206.5 -156.5t78.5 -285.5v-913q-86 -40 -193.5 -65t-212.5 -25q-93 0 -171 19.5t-143.5 61.5
t-102.5 116.5t-37 176.5zM412 346q0 -37 20 -61.5t48 -32t58 -4t52 17.5v514q-34 21 -75 24t-72 -20t-31 -71v-367z" />
    <glyph glyph-name="ntilde" unicode="&#xf1;" horiz-adv-x="1048" 
d="M96 0v995q180 86 387 86q96 1 179 -21t151.5 -67.5t108 -125t39.5 -185.5v-682h-345v680q0 49 -29 73.5t-73 24.5q-42 0 -72 -12v-766h-346zM162 1231q44 237 250 231q30 -1 68 -16t67 -29.5t58 -22.5t53.5 6t41.5 56l181 -102q-28 -109 -80.5 -167t-124.5 -57
q-41 0 -87.5 15.5t-79.5 30.5t-65.5 23.5t-60 -6t-49.5 -58.5z" />
    <glyph glyph-name="ograve" unicode="&#xf2;" horiz-adv-x="1009" 
d="M72 354v336q0 95 36.5 171t98.5 122.5t138 71.5t159 26q66 -1 128 -16t117.5 -47t97.5 -77.5t66.5 -110t24.5 -140.5v-336q0 -90 -37 -163t-99 -118t-138.5 -69t-159.5 -24q-66 1 -128.5 16t-117.5 45.5t-96.5 74t-65.5 105t-24 133.5zM141 1483h367l197 -326h-306z
M410 350q0 -35 29 -57.5t65 -22.5t65 22.5t29 57.5v346q0 34 -30 56t-64 22t-64 -22t-30 -56v-346z" />
    <glyph glyph-name="oacute" unicode="&#xf3;" horiz-adv-x="1009" 
d="M72 354v336q0 95 36.5 171t98.5 122.5t138 71.5t159 26q66 -1 128 -16t117.5 -47t97.5 -77.5t66.5 -110t24.5 -140.5v-336q0 -90 -37 -163t-99 -118t-138.5 -69t-159.5 -24q-66 1 -128.5 16t-117.5 45.5t-96.5 74t-65.5 105t-24 133.5zM301 1157l197 326h366l-258 -326
h-305zM410 350q0 -35 29 -57.5t65 -22.5t65 22.5t29 57.5v346q0 34 -30 56t-64 22t-64 -22t-30 -56v-346z" />
    <glyph glyph-name="ocircumflex" unicode="&#xf4;" horiz-adv-x="1009" 
d="M72 354v336q0 95 36.5 171t98.5 122.5t138 71.5t159 26q66 -1 128 -16t117.5 -47t97.5 -77.5t66.5 -110t24.5 -140.5v-336q0 -90 -37 -163t-99 -118t-138.5 -69t-159.5 -24q-66 1 -128.5 16t-117.5 45.5t-96.5 74t-65.5 105t-24 133.5zM84 1157l303 330h231l295 -330
h-319l-90 100l-86 -100h-334zM410 350q0 -35 29 -57.5t65 -22.5t65 22.5t29 57.5v346q0 34 -30 56t-64 22t-64 -22t-30 -56v-346z" />
    <glyph glyph-name="otilde" unicode="&#xf5;" horiz-adv-x="1009" 
d="M72 354v336q0 95 36.5 171t98.5 122.5t138 71.5t159 26q66 -1 128 -16t117.5 -47t97.5 -77.5t66.5 -110t24.5 -140.5v-336q0 -90 -37 -163t-99 -118t-138.5 -69t-159.5 -24q-66 1 -128.5 16t-117.5 45.5t-96.5 74t-65.5 105t-24 133.5zM125 1233q47 243 254 237
q31 -1 69.5 -16.5t68 -31t60 -24t55.5 6t44 57.5l182 -104q-29 -113 -82.5 -171t-126.5 -57q-43 0 -90.5 16t-81 31.5t-66.5 24t-61 -6.5t-51 -60zM410 350q0 -35 29 -57.5t65 -22.5t65 22.5t29 57.5v346q0 34 -30 56t-64 22t-64 -22t-30 -56v-346z" />
    <glyph glyph-name="odieresis" unicode="&#xf6;" horiz-adv-x="1009" 
d="M72 354v336q0 95 36.5 171t98.5 122.5t138 71.5t159 26q66 -1 128 -16t117.5 -47t97.5 -77.5t66.5 -110t24.5 -140.5v-336q0 -90 -37 -163t-99 -118t-138.5 -69t-159.5 -24q-66 1 -128.5 16t-117.5 45.5t-96.5 74t-65.5 105t-24 133.5zM104 1319q0 73 50 123.5t122 50.5
t122.5 -50.5t50.5 -123.5q0 -71 -50.5 -120.5t-122.5 -49.5t-122 49.5t-50 120.5zM410 350q0 -35 29 -57.5t65 -22.5t65 22.5t29 57.5v346q0 34 -30 56t-64 22t-64 -22t-30 -56v-346zM557 1319q0 74 49 124t123 50q73 0 123.5 -50.5t50.5 -123.5q0 -71 -50.5 -120.5
t-123.5 -49.5q-74 0 -123 49.5t-49 120.5z" />
    <glyph glyph-name="divide" unicode="&#xf7;" horiz-adv-x="1042" 
d="M55 455v311h930v-311h-930zM332 201q0 81 54.5 132.5t137.5 51.5t139 -51.5t56 -132.5t-56 -134t-139 -53q-82 0 -137 53t-55 134zM332 1022q0 81 54.5 132.5t137.5 51.5t139 -51.5t56 -132.5t-56 -133.5t-139 -52.5q-82 0 -137 52.5t-55 133.5z" />
    <glyph glyph-name="oslash" unicode="&#xf8;" horiz-adv-x="1009" 
d="M72 354v336q0 95 36.5 171t98.5 122.5t138 71.5t159 26q40 0 80 -6l43 121l223 -68l-51 -143q139 -107 139 -295v-336q0 -90 -37 -163t-99 -118t-138.5 -69t-159.5 -24q-24 0 -64 4l-49 -121l-215 65l51 131q-155 106 -155 295zM410 350q0 -35 29 -57.5t65 -22.5t65 22.5
t29 57.5v346q0 34 -30 56t-64 22t-64 -22t-30 -56v-346z" />
    <glyph glyph-name="ugrave" unicode="&#xf9;" horiz-adv-x="1050" 
d="M90 379v682h344v-680q0 -50 31.5 -74t77.5 -24q35 0 65 12v766h346v-995q-177 -86 -383 -86q-78 0 -146 12t-131 41.5t-107 74t-70.5 114t-26.5 157.5zM147 1499h381l205 -340h-317z" />
    <glyph glyph-name="uacute" unicode="&#xfa;" horiz-adv-x="1050" 
d="M90 379v682h344v-680q0 -50 31.5 -74t77.5 -24q35 0 65 12v766h346v-995q-177 -86 -383 -86q-78 0 -146 12t-131 41.5t-107 74t-70.5 114t-26.5 157.5zM313 1159l205 340h381l-268 -340h-318z" />
    <glyph glyph-name="ucircumflex" unicode="&#xfb;" horiz-adv-x="1050" 
d="M88 1159l315 344h240l307 -344h-332l-94 107l-90 -107h-346zM90 379v682h344v-680q0 -50 31.5 -74t77.5 -24q35 0 65 12v766h346v-995q-177 -86 -383 -86q-78 0 -146 12t-131 41.5t-107 74t-70.5 114t-26.5 157.5z" />
    <glyph glyph-name="udieresis" unicode="&#xfc;" horiz-adv-x="1050" 
d="M90 379v682h344v-680q0 -50 31.5 -74t77.5 -24q35 0 65 12v766h346v-995q-177 -86 -383 -86q-78 0 -146 12t-131 41.5t-107 74t-70.5 114t-26.5 157.5zM104 1319q0 73 50 123.5t122 50.5t122.5 -50.5t50.5 -123.5q0 -71 -50.5 -120.5t-122.5 -49.5t-122 49.5t-50 120.5z
M598 1319q0 74 49 124t123 50t124 -50.5t50 -123.5q0 -71 -50.5 -120.5t-123.5 -49.5q-74 0 -123 49.5t-49 120.5z" />
    <glyph glyph-name="yacute" unicode="&#xfd;" horiz-adv-x="1052" 
d="M90 336v725h334v-703q0 -48 31.5 -72t76.5 -24q44 0 82 23v776h340v-1036q0 -232 -119.5 -355t-320.5 -123q-213 0 -383 144l137 213q106 -64 195 -64q80 0 121 44.5t41 119.5q-65 -24 -160 -24q-73 0 -138.5 21t-119 62.5t-85.5 112t-32 160.5zM309 1159l205 340h381
l-268 -340h-318z" />
    <glyph glyph-name="thorn" unicode="&#xfe;" horiz-adv-x="1038" 
d="M98 -324v1774h344v-385q66 16 103 16q86 0 157.5 -18.5t133 -58.5t96.5 -113t35 -174v-346q0 -92 -37 -168t-98.5 -123.5t-137.5 -73.5t-157 -26q-37 0 -95 14v-318h-344zM442 279q35 -18 74.5 -21t72 21.5t32.5 76.5v346q0 41 -19 65.5t-47.5 30.5t-58 3t-54.5 -15v-507
z" />
    <glyph glyph-name="ydieresis" unicode="&#xff;" horiz-adv-x="1052" 
d="M90 336v725h334v-703q0 -48 31.5 -72t76.5 -24q44 0 82 23v776h340v-1036q0 -232 -119.5 -355t-320.5 -123q-213 0 -383 144l137 213q106 -64 195 -64q80 0 121 44.5t41 119.5q-65 -24 -160 -24q-73 0 -138.5 21t-119 62.5t-85.5 112t-32 160.5zM100 1319q0 73 50 123.5
t122 50.5t122 -50.5t50 -123.5q0 -71 -50 -120.5t-122 -49.5t-122 49.5t-50 120.5zM594 1319q0 74 49 124t123 50t124 -50.5t50 -123.5q0 -71 -50.5 -120.5t-123.5 -49.5q-74 0 -123 49.5t-49 120.5z" />
    <glyph glyph-name="dotlessi" unicode="&#x131;" horiz-adv-x="548" 
d="M98 0v1061h353v-1061h-353z" />
    <glyph glyph-name="OE" unicode="&#x152;" horiz-adv-x="1662" 
d="M86 434v570q0 206 127.5 336t306.5 130q142 0 262 -71v51h801v-346h-487v-215h434v-334h-434v-211h487v-344h-801v66q-110 -86 -250 -86q-214 0 -330 124t-116 330zM455 467q0 -87 51 -129.5t125 -42.5q47 0 89 15t62 40v754q-59 48 -137 51.5t-134 -39t-56 -115.5v-534z
" />
    <glyph glyph-name="oe" unicode="&#x153;" horiz-adv-x="1519" 
d="M72 356v334q0 95 37 171t99 122.5t138.5 71.5t159.5 26q165 0 264 -120q100 111 264 114q84 2 160 -21.5t135.5 -70t95 -123t35.5 -172.5v-301h-514v-16q0 -35 23.5 -64t58.5 -41.5t80 2t84 60.5l203 -162q-75 -105 -165.5 -144.5t-195.5 -39.5q-189 0 -270 133
q-44 -63 -110.5 -96t-137.5 -35q-85 -2 -163 21.5t-141.5 68t-101.5 118t-38 164.5zM412 352q1 -35 29 -57.5t63 -22.5q36 0 64.5 22.5t29.5 57.5v350q-4 32 -32 52t-60 20q-34 0 -64 -22t-30 -56v-344zM938 614h209v86q0 48 -50 70t-102 4t-57 -67v-93z" />
    <glyph glyph-name="Ydieresis" unicode="&#x178;" horiz-adv-x="1341" 
d="M-18 1450h426l262 -532l262 532h430l-508 -879v-571h-367v571zM244 1708q0 73 50 123.5t122 50.5t122 -50.5t50 -123.5q0 -71 -50 -120.5t-122 -49.5t-122 49.5t-50 120.5zM737 1708q0 74 49 124t123 50q73 0 123.5 -50t50.5 -124q0 -71 -50.5 -120.5t-123.5 -49.5
q-74 0 -123 49.5t-49 120.5z" />
    <glyph glyph-name="florin" unicode="&#x192;" horiz-adv-x="1044" 
d="M23 -170l83 252q114 -57 134 59l92 482h-146v299h201l43 196q17 106 77 189t141.5 124t183 28.5t194.5 -87.5l-115 -221q-109 45 -131 -70l-37 -159h144v-299h-197l-100 -551q-19 -102 -76 -174t-134 -103t-171 -23t-186 58z" />
    <glyph glyph-name="circumflex" unicode="&#x2c6;" horiz-adv-x="1026" 
d="M82 1548l315 344h240l307 -344h-332l-94 107l-90 -107h-346z" />
    <glyph glyph-name="caron" unicode="&#x2c7;" horiz-adv-x="903" 
d="M29 1892h344l84 -106l94 106h342l-307 -344h-250z" />
    <glyph glyph-name="breve" unicode="&#x2d8;" horiz-adv-x="921" 
d="M102 1888h281q0 -37 25 -58t55 -21t55 21t25 58h276q0 -86 -31 -155.5t-81 -112t-114.5 -66t-132 -23.5t-132 23.5t-114.5 66t-81 112t-31 155.5z" />
    <glyph glyph-name="dotaccent" unicode="&#x2d9;" horiz-adv-x="606" 
d="M102 1743q0 84 58.5 141.5t144.5 57.5t142.5 -57.5t56.5 -141.5q0 -85 -56.5 -143t-142.5 -58t-144.5 58t-58.5 143z" />
    <glyph glyph-name="ring" unicode="&#x2da;" horiz-adv-x="735" 
d="M98 1784q0 108 80 183t193 75q110 0 188 -78.5t78 -181.5q0 -104 -78.5 -179t-187.5 -75q-114 0 -193.5 73.5t-79.5 182.5zM293 1780q0 -26 22 -49t56 -23q32 0 52.5 19.5t20.5 52.5t-21.5 57.5t-51.5 24.5q-35 0 -56.5 -24t-21.5 -58z" />
    <glyph glyph-name="ogonek" unicode="&#x2db;" horiz-adv-x="778" 
d="M180 -340.5q-19 71.5 15 168.5t122 195h248l10 -23q-92 -90 -98 -164q-4 -54 43 -62q8 -1 17 -1q35 0 81 28l58 -219q-50 -40 -114 -61t-122 -21q-106 0 -173.5 44t-86.5 115.5z" />
    <glyph glyph-name="tilde" unicode="&#x2dc;" horiz-adv-x="952" 
d="M102 1626q23 123 89 184t171 58q32 -1 71 -16.5t69.5 -31t61 -24.5t56 5.5t44.5 58.5l186 -107q-29 -114 -83.5 -173t-129.5 -58q-43 0 -91 16t-82.5 31.5t-68.5 24t-62.5 -7t-51.5 -60.5z" />
    <glyph glyph-name="hungarumlaut" unicode="&#x2dd;" horiz-adv-x="1093" 
d="M102 1548l154 324h362l-227 -324h-289zM567 1548l152 324h375l-240 -324h-287z" />
    <glyph glyph-name="Omega" unicode="&#x3a9;" horiz-adv-x="1589" 
d="M82 0v360h133q-123 159 -123 406q0 134 39 248t106 194t156.5 136t190.5 83t207 27q107 0 209.5 -27.5t193.5 -84.5t159 -136.5t108 -191t40 -240.5q0 -118 -33.5 -226.5t-95.5 -187.5h131v-360h-682v289q330 105 330 452q0 71 -22.5 135t-65.5 115t-113.5 81t-158.5 30
q-110 0 -191.5 -54.5t-120.5 -138.5t-39 -184q0 -96 34 -181t108 -154t180 -101v-289h-680z" />
    <glyph glyph-name="pi" unicode="&#x3c0;" horiz-adv-x="1177" 
d="M10 952l39 35q43 28 74 43.5t84 29t115 13.5h796l-33 -319h-81v-402q0 -12 2.5 -24t9.5 -28t25.5 -25.5t45.5 -8.5l3 -276q-100 -10 -177 4.5t-125 46.5t-78.5 81.5t-42.5 104t-12 119.5v408h-104v-754h-344v723l-129 -29z" />
    <glyph glyph-name="afii10023" unicode="&#x401;" horiz-adv-x="1204" 
d="M115 0v1450h1009v-344h-639v-225h588v-318h-588v-217h639v-346h-1009zM213 1708q0 73 50 123.5t122 50.5t122 -50.5t50 -123.5q0 -71 -50 -120.5t-122 -49.5t-122 49.5t-50 120.5zM707 1708q0 74 49 124t123 50q73 0 123.5 -50t50.5 -124q0 -71 -50.5 -120.5
t-123.5 -49.5q-74 0 -123 49.5t-49 120.5z" />
    <glyph glyph-name="afii10017" unicode="&#x410;" 
d="M-12 0l506 1450h333l519 -1450h-394l-94 291h-387l-90 -291h-393zM553 616h217l-100 424h-11z" />
    <glyph glyph-name="afii10018" unicode="&#x411;" horiz-adv-x="1261" 
d="M115 0v1450h991v-307h-623v-225h213q120 0 210 -19t150.5 -54t98 -90.5t54 -124t16.5 -157.5q0 -218 -138.5 -345.5t-379.5 -127.5h-592zM483 322h213q89 0 127.5 44t38.5 126q0 159 -168 159h-211v-329z" />
    <glyph glyph-name="afii10019" unicode="&#x412;" horiz-adv-x="1282" 
d="M115 0v1450h581q138 0 246 -52t168.5 -153.5t56.5 -236.5q-2 -60 -40 -130t-109 -106q57 -29 99.5 -69t64 -82t34.5 -87.5t11.5 -84.5t-4.5 -74q-60 -375 -516 -375h-592zM483 322h213q63 0 105.5 30.5t52.5 74t-0.5 87t-53 74t-104.5 30.5h-213v-296zM483 883h213
q43 0 74.5 19t46 48t15 62t-13.5 62t-46 48t-76 19h-213v-258z" />
    <glyph glyph-name="afii10020" unicode="&#x413;" horiz-adv-x="1044" 
d="M115 0v1450h903v-348h-535v-1102h-368z" />
    <glyph glyph-name="afii10021" unicode="&#x414;" horiz-adv-x="1527" 
d="M37 -291v621q54 0 96 15t71 39.5t49.5 65.5t32.5 82t20 100.5t12 110.5t8 122q1 22 1.5 34t2 31t2.5 35l35 485h946v-1120h176v-621h-369v291h-708v-291h-375zM606 330h338v772h-246l-30 -440q-11 -200 -62 -332z" />
    <glyph glyph-name="afii10022" unicode="&#x415;" horiz-adv-x="1204" 
d="M115 0v1450h1009v-344h-639v-225h588v-318h-588v-217h639v-346h-1009z" />
    <glyph glyph-name="afii10024" unicode="&#x416;" horiz-adv-x="1941" 
d="M-18 1450h442l362 -543v543h369v-543l363 543h442l-518 -713l516 -737h-457l-334 549l-12 -17v-532h-369v532l-12 17l-334 -549h-456l516 737z" />
    <glyph glyph-name="afii10025" unicode="&#x417;" horiz-adv-x="1167" 
d="M-2 264l233 182q61 -68 135 -106.5t142 -38.5q112 0 172.5 39.5t60.5 116.5q0 78 -49.5 122t-138.5 44h-215v251h207q82 0 128 40t46 112q0 63 -47 100t-137 37q-70 0 -143 -32.5t-122 -69.5l-192 188q180 221 483 221q240 0 370 -110t130 -309q0 -77 -42.5 -159.5
t-115.5 -119.5q107 -54 157 -143.5t50 -194.5q0 -215 -153.5 -334.5t-428.5 -119.5q-168 0 -308 75t-222 209z" />
    <glyph glyph-name="afii10026" unicode="&#x418;" horiz-adv-x="1402" 
d="M115 0v1450h368v-657l-30 -218l8 -2l121 261l370 616h336v-1450h-368v580l36 272l-10 2l-137 -283l-348 -571h-346z" />
    <glyph glyph-name="afii10027" unicode="&#x419;" horiz-adv-x="1402" 
d="M115 0v1450h368v-657l-30 -218l8 -2l121 261l370 616h336v-1450h-368v580l36 272l-10 2l-137 -283l-348 -571h-346zM322 1925h284q0 -38 24.5 -61t61.5 -23t61.5 23t24.5 61h285q0 -113 -54 -196t-136.5 -121.5t-180.5 -38.5q-72 0 -138 23t-118 66t-83 112t-31 155z" />
    <glyph glyph-name="afii10028" unicode="&#x41a;" horiz-adv-x="1310" 
d="M115 0v1450h368v-537l394 537h456l-573 -713l571 -737h-461l-374 518l-13 -16v-502h-368z" />
    <glyph glyph-name="afii10029" unicode="&#x41b;" horiz-adv-x="1452" 
d="M35 0v342q44 -2 80.5 5.5t63.5 21.5t48.5 40.5t35.5 51.5t25 66.5t17 74t11 84.5t7 88.5t5 95t6 95.5l35 485h968v-1450h-368v1102h-269l-24 -440q-6 -107 -28 -203t-70 -188t-118 -155.5t-179 -96.5t-246 -19z" />
    <glyph glyph-name="afii10030" unicode="&#x41c;" horiz-adv-x="1574" 
d="M115 0v1450h366l305 -709l308 709h366v-1450h-368l2 418l22 293l-12 2l-191 -498h-251l-195 498l-10 -2l24 -293v-418h-366z" />
    <glyph glyph-name="afii10031" unicode="&#x41d;" horiz-adv-x="1384" 
d="M115 0v1450h368v-549h418v549h369v-1450h-369v547h-418v-547h-368z" />
    <glyph glyph-name="afii10032" unicode="&#x41e;" horiz-adv-x="1361" 
d="M80 477v496q0 97 33.5 179.5t91 140t134.5 98t163 60t178 19.5t178.5 -19.5t163.5 -60t135 -98.5t91.5 -140t33.5 -179v-496q0 -97 -33.5 -179t-91 -140t-134.5 -98.5t-163 -60t-178 -19.5t-178.5 19.5t-163.5 60t-135 98.5t-91.5 140t-33.5 179zM446 477
q0 -75 70 -116.5t166 -41.5q95 0 164 42t69 116v496q0 54 -35.5 92t-88.5 55t-115 17q-92 0 -161 -44.5t-69 -119.5v-496z" />
    <glyph glyph-name="afii10033" unicode="&#x41f;" horiz-adv-x="1374" 
d="M115 0v1450h1145v-1450h-369v1102h-408v-1102h-368z" />
    <glyph glyph-name="afii10034" unicode="&#x420;" horiz-adv-x="1265" 
d="M115 0v1450h579q103 0 190.5 -28.5t149.5 -78t105.5 -115t64.5 -139t21 -151.5q0 -99 -34 -189.5t-98.5 -164t-167 -117t-229.5 -43.5h-215v-424h-366zM481 750h213q45 0 81 19.5t54.5 51t27 70t0 77t-27 70t-54.5 51t-81 19.5h-213v-358z" />
    <glyph glyph-name="afii10035" unicode="&#x421;" horiz-adv-x="1191" 
d="M80 475v500q0 119 49 215t131 156t184 92t213 32q71 0 139 -16.5t137.5 -52.5t130.5 -103.5t103 -160.5l-299 -121q-35 64 -107 93.5t-141 22t-121.5 -49.5t-52.5 -107v-500q0 -50 34.5 -88.5t86.5 -52.5t108 -10.5t106 38t73 91.5l320 -148q-44 -85 -106.5 -149.5
t-133 -102t-141.5 -55.5t-142 -18q-109 0 -210 31.5t-182 91.5t-130 156.5t-49 215.5z" />
    <glyph glyph-name="afii10036" unicode="&#x422;" horiz-adv-x="1198" 
d="M29 1104v348h1140v-348h-385v-1104h-370v1104h-385z" />
    <glyph glyph-name="afii10037" unicode="&#x423;" horiz-adv-x="1228" 
d="M-55 1450h415l144 -315l98 -263h10l109 283l131 295h408l-656 -1450h-395l213 469z" />
    <glyph glyph-name="afii10038" unicode="&#x424;" horiz-adv-x="1646" 
d="M53 600v250q0 101 33.5 182.5t89.5 136.5t133 92t162 53.5t178 16.5v119h348v-119q93 0 178 -16.5t162 -53.5t133 -92t89.5 -136.5t33.5 -182.5v-250q0 -101 -33.5 -182.5t-89.5 -136.5t-133 -92t-162 -53.5t-178 -16.5v-119h-348v119q-93 0 -178 16.5t-162 53.5t-133 92
t-89.5 136.5t-33.5 182.5zM422 598q0 -84 61.5 -115.5t165.5 -31.5v548q-104 0 -165.5 -31.5t-61.5 -115.5v-254zM997 451q49 0 86.5 6t71.5 21t52 45.5t18 74.5v254q0 44 -18 74.5t-52 45.5t-71.5 21t-86.5 6v-548z" />
    <glyph glyph-name="afii10039" unicode="&#x425;" horiz-adv-x="1343" 
d="M-6 0l407 723l-407 727h428l248 -496l254 496h426l-406 -727l406 -723h-426l-254 494l-248 -494h-428z" />
    <glyph glyph-name="afii10040" unicode="&#x426;" horiz-adv-x="1464" 
d="M115 0v1450h368v-1102h396v1102h368v-1102h176v-639h-348v291h-960z" />
    <glyph glyph-name="afii10041" unicode="&#x427;" horiz-adv-x="1308" 
d="M66 901v549h368v-549q0 -70 41.5 -108.5t116.5 -40.5q68 0 131 17.5t100 51.5l2 629h369v-1450h-369v485q-38 -33 -110.5 -57.5t-153.5 -24.5q-98 0 -186 32t-157.5 92.5t-110.5 157t-41 216.5z" />
    <glyph glyph-name="afii10042" unicode="&#x428;" horiz-adv-x="2023" 
d="M115 0v1450h368v-1102h344v1102h369v-1102h344v1102h369v-1450h-1794z" />
    <glyph glyph-name="afii10043" unicode="&#x429;" horiz-adv-x="2125" 
d="M115 0v1450h368v-1102h344v1102h369v-1102h344v1102h369v-1102h176v-639h-348v291h-1622z" />
    <glyph glyph-name="afii10044" unicode="&#x42a;" horiz-adv-x="1462" 
d="M35 1102v348h645v-494h217q144 0 246.5 -32t162 -94t86.5 -143.5t27 -188.5q0 -219 -138 -358.5t-374 -139.5h-596v1102h-276zM680 322h217q45 0 77.5 15t50.5 41t26 56.5t8 67.5q0 79 -43 121.5t-119 42.5h-217v-344z" />
    <glyph glyph-name="afii10045" unicode="&#x42b;" horiz-adv-x="1873" 
d="M115 0v1450h368v-494h217q144 0 247 -32t162.5 -94t86.5 -143.5t27 -188.5q0 -219 -138 -358.5t-374 -139.5h-596zM483 322h217q45 0 77.5 15t50.5 41t26 56.5t8 67.5q0 79 -43 121.5t-119 42.5h-217v-344zM1393 0v1450h366v-1450h-366z" />
    <glyph glyph-name="afii10046" unicode="&#x42c;" horiz-adv-x="1265" 
d="M115 0v1450h368v-494h217q144 0 247 -32t162.5 -94t86.5 -143.5t27 -188.5q0 -219 -138 -358.5t-374 -139.5h-596zM483 322h217q45 0 77.5 15t50.5 41t26 56.5t8 67.5q0 79 -43 121.5t-119 42.5h-217v-344z" />
    <glyph glyph-name="afii10047" unicode="&#x42d;" horiz-adv-x="1204" 
d="M29 307l319 148q26 -65 84 -96t129 -31q80 2 137.5 42t57.5 107v103h-322v305h322v86q0 72 -61 114.5t-144 42.5q-68 0 -127 -29.5t-90 -86.5l-299 121q42 93 103 161t130 105t137.5 54t139.5 17q88 0 172 -20t157.5 -61.5t129 -100t88 -140t32.5 -177.5v-494
q0 -96 -32 -178t-87.5 -140t-129 -99t-155.5 -60.5t-169 -19.5q-71 0 -142 18.5t-141 56t-132.5 102.5t-106.5 150z" />
    <glyph glyph-name="afii10048" unicode="&#x42e;" horiz-adv-x="1994" 
d="M111 0v1450h368v-551h230v74q0 121 51.5 218t137 156.5t192 91t221.5 31.5q92 0 178.5 -19.5t164 -60.5t135.5 -98.5t92 -139.5t34 -179v-496q0 -97 -33.5 -179t-91.5 -140t-135 -98.5t-163.5 -60t-178.5 -19.5t-178.5 19.5t-164 60.5t-135.5 98.5t-92 139.5t-34 179v86
h-230v-563h-368zM1077 485q0 -74 69.5 -115.5t164.5 -41.5q96 0 165.5 41t69.5 116v473q0 78 -69.5 121t-165.5 43q-95 -2 -164.5 -45.5t-69.5 -118.5v-473z" />
    <glyph glyph-name="afii10049" unicode="&#x42f;" horiz-adv-x="1323" 
d="M-66 0l443 524q-66 23 -116 56t-92 84.5t-64.5 129.5t-22.5 179q6 228 151 352.5t398 124.5h577v-1450h-368v487h-60l-389 -487h-457zM451 944q0 -74 44.5 -121t129.5 -47h215v326h-215q-83 0 -128.5 -41.5t-45.5 -116.5z" />
    <glyph glyph-name="afii10065" unicode="&#x430;" horiz-adv-x="989" 
d="M47 332q0 144 103.5 237t295.5 93q70 0 123 -9q8 152 -143 152q-98 0 -184 -76l-160 162q71 96 176 143t225 47q83 0 157.5 -23t133.5 -68t94 -119.5t35 -168.5v-651q-196 -71 -409 -71q-222 0 -334.5 91.5t-112.5 260.5zM371 334q0 -38 18.5 -61t49 -30.5t62 -6
t64.5 9.5v182q-71 23 -132.5 -4t-61.5 -90z" />
    <glyph glyph-name="afii10066" unicode="&#x431;" horiz-adv-x="1046" 
d="M90 354v733q0 59 13.5 108t35 83t54 61t63.5 43.5t72.5 28.5t71.5 18t69 11q257 35 358 98l101 -258q-107 -77 -291 -100q-9 -1 -33 -3.5t-35 -3.5t-32 -5.5t-32 -10t-26 -15.5t-22.5 -23t-13 -32t-5.5 -43v-98q68 47 172 47q161 0 263 -101.5t102 -273.5v-264
q0 -90 -38 -163t-101.5 -118t-141.5 -69t-162 -24t-162 24t-141 69t-101 118t-38 163zM438 367q0 -36 28 -58t66 -22t66.5 22.5t28.5 57.5v258q0 35 -29 56t-66 21q-60 0 -94 -30v-305z" />
    <glyph glyph-name="afii10067" unicode="&#x432;" horiz-adv-x="1058" 
d="M98 0v1061h461q215 0 310.5 -68t95.5 -205q0 -157 -129 -223q51 -24 84.5 -54.5t50 -68t22.5 -73t6 -82.5q0 -139 -113.5 -213t-326.5 -74h-461zM446 236h105q118 0 121 104q1 55 -29 78.5t-92 23.5h-105v-206zM446 645h105q48 0 74 26t26 64q-1 48 -28 69t-78 21h-99
v-180z" />
    <glyph glyph-name="afii10068" unicode="&#x433;" horiz-adv-x="817" 
d="M98 0v1061h693v-307h-345v-754h-348z" />
    <glyph glyph-name="afii10069" unicode="&#x434;" horiz-adv-x="1224" 
d="M37 -242v525h10q43 0 74 12.5t51.5 35t34 63t20.5 86.5t13 116l41 465h768v-778h131v-525h-326v242h-492v-242h-325zM506 283h209v485h-144l-22 -315q-6 -111 -43 -170z" />
    <glyph glyph-name="afii10070" unicode="&#x435;" horiz-adv-x="980" 
d="M72 369v331q0 95 37 170t100 120t139 68t160 23q81 0 154 -24t132 -70t93.5 -121.5t34.5 -171.5v-286h-535v-39q0 -56 44 -88.5t106 -32.5q101 0 161 71l193 -155q-132 -184 -379 -184q-83 0 -160.5 24.5t-140.5 71t-101 122.5t-38 171zM391 635h232v76q0 43 -34.5 67.5
t-80.5 24.5q-48 0 -82.5 -25.5t-34.5 -72.5v-70z" />
    <glyph glyph-name="afii10072" unicode="&#x436;" horiz-adv-x="1529" 
d="M4 1061h389l203 -350v350h338v-350l203 350h389l-373 -514l371 -547h-385l-205 342v-342h-338v342l-205 -342h-385l371 547z" />
    <glyph glyph-name="afii10073" unicode="&#x437;" horiz-adv-x="907" 
d="M23 176l184 152q76 -82 188 -82q58 0 92 23t35 67q2 47 -26.5 73.5t-85.5 26.5h-134v209h125q101 0 101 96q0 39 -29 58.5t-80 19.5q-46 0 -81.5 -17t-75.5 -52l-170 153q59 90 159 134t219 44q99 1 181 -27t136 -93t54 -158q0 -82 -35.5 -145t-93.5 -93
q164 -77 164 -264q0 -80 -34 -142.5t-91.5 -100.5t-128.5 -57.5t-150 -20.5q-141 -2 -257.5 48t-165.5 148z" />
    <glyph glyph-name="afii10074" unicode="&#x438;" horiz-adv-x="1140" 
d="M98 0v1061h348v-408l-20 -227l6 -2l66 182l202 455h342v-1061h-348v367l27 231l-8 2l-58 -184l-213 -416h-344z" />
    <glyph glyph-name="afii10075" unicode="&#x439;" horiz-adv-x="1140" 
d="M98 0v1061h348v-408l-20 -227l6 -2l66 182l202 455h342v-1061h-348v367l27 231l-8 2l-58 -184l-213 -416h-344zM242 1548h270q0 -58 44 -83t88 -1.5t44 84.5h270q0 -138 -75.5 -232t-182 -115.5t-212.5 0.5t-178.5 116t-67.5 231z" />
    <glyph glyph-name="afii10076" unicode="&#x43a;" horiz-adv-x="1069" 
d="M98 0v1061h348v-330l228 330h395l-385 -514l383 -547h-391l-230 340v-340h-348z" />
    <glyph glyph-name="afii10077" unicode="&#x43b;" horiz-adv-x="1128" 
d="M37 0v281q105 0 146 70t55 245l38 465h754v-1061h-348v754h-104l-29 -369q-9 -115 -41.5 -189t-97 -118t-152.5 -61t-221 -17z" />
    <glyph glyph-name="afii10078" unicode="&#x43c;" horiz-adv-x="1343" 
d="M98 0v1061h371l203 -535l202 535h371v-1061h-348v305l29 230h-11l-137 -379h-211l-139 379h-10l28 -230v-305h-348z" />
    <glyph glyph-name="afii10079" unicode="&#x43d;" horiz-adv-x="1075" 
d="M98 0v1061h348v-354h183v354h348v-1061h-348v399h-183v-399h-348z" />
    <glyph glyph-name="afii10080" unicode="&#x43e;" horiz-adv-x="1009" 
d="M72 354v336q0 95 36.5 171t98.5 122.5t138 71.5t159 26q66 -1 128 -16t117.5 -47t97.5 -77.5t66.5 -110t24.5 -140.5v-336q0 -90 -37 -163t-99 -118t-138.5 -69t-159.5 -24q-66 1 -128.5 16t-117.5 45.5t-96.5 74t-65.5 105t-24 133.5zM410 350q0 -35 29 -57.5t65 -22.5
t65 22.5t29 57.5v346q0 34 -30 56t-64 22t-64 -22t-30 -56v-346z" />
    <glyph glyph-name="afii10081" unicode="&#x43f;" horiz-adv-x="1079" 
d="M98 0v1061h883v-1061h-348v754h-187v-754h-348z" />
    <glyph glyph-name="afii10082" unicode="&#x440;" horiz-adv-x="1067" 
d="M104 -381v1372q237 90 447 90q89 0 163 -18.5t135.5 -59.5t98 -113.5t41.5 -172.5v-363q1 -83 -35 -155t-95.5 -119t-134 -73.5t-151.5 -26.5q-61 0 -120 18v-379h-349zM453 262q31 -14 69 -14q47 0 83 21t36 67v381q0 42 -37 64t-86 22q-35 0 -65 -10v-531z" />
    <glyph glyph-name="afii10083" unicode="&#x441;" horiz-adv-x="946" 
d="M72 358v334q0 94 37.5 170t99.5 122.5t138.5 71.5t158.5 25q46 0 90 -8t91.5 -29t87 -52.5t73 -83t51.5 -117.5l-291 -91q-8 44 -38.5 67.5t-67.5 23.5t-64.5 -25t-27.5 -66v-340q0 -41 28 -65.5t68 -24.5q37 0 69.5 22.5t45.5 65.5l299 -67q-22 -69 -58.5 -123.5
t-78.5 -89t-91.5 -57.5t-95 -32t-90.5 -9q-84 0 -159 21t-138 64.5t-100 118.5t-37 174z" />
    <glyph glyph-name="afii10084" unicode="&#x442;" horiz-adv-x="942" 
d="M33 774v287h876v-287h-264v-774h-348v774h-264z" />
    <glyph glyph-name="afii10085" unicode="&#x443;" horiz-adv-x="1052" 
d="M90 336v725h334v-703q0 -48 31.5 -72t76.5 -24q44 0 82 23v776h340v-1036q0 -232 -119.5 -355t-320.5 -123q-213 0 -383 144l137 213q106 -64 195 -64q80 0 121 44.5t41 119.5q-65 -24 -160 -24q-73 0 -138.5 21t-119 62.5t-85.5 112t-32 160.5z" />
    <glyph glyph-name="afii10086" unicode="&#x444;" horiz-adv-x="1482" 
d="M80 334v393q0 167 89 260.5t277 93.5q71 0 125 -24v393h338v-393q54 24 127 24q188 0 277.5 -93.5t89.5 -260.5v-393q0 -167 -89.5 -260.5t-277.5 -93.5q-73 0 -127 24v-385h-338l2 385q-54 -24 -127 -24q-188 0 -277 93.5t-89 260.5zM428 352q0 -90 88 -90q28 0 57 19
v499q-29 19 -57 19q-88 0 -88 -90v-357zM909 281q29 -19 58 -19q88 0 88 90v357q0 90 -88 90q-29 0 -58 -19v-499z" />
    <glyph glyph-name="afii10087" unicode="&#x445;" horiz-adv-x="1079" 
d="M8 1061h375l109 -187l43 -133h2l38 138l107 182h385l-332 -526q37 -52 88.5 -131.5t82 -129t95.5 -154.5t74 -120h-393l-117 195l-35 118h-4l-37 -120l-110 -193h-369l324 530z" />
    <glyph glyph-name="afii10088" unicode="&#x446;" horiz-adv-x="1155" 
d="M98 0v1061h348v-778h183v778h348v-778h135v-545h-303l-21 262h-690z" />
    <glyph glyph-name="afii10089" unicode="&#x447;" horiz-adv-x="1026" 
d="M55 635v426h348v-369q0 -49 21.5 -72.5t67.5 -23.5q47 0 88 25v440h348v-1061h-348v334q-65 -45 -177 -45q-44 0 -88.5 9.5t-92 34t-84 62t-60 99.5t-23.5 141z" />
    <glyph glyph-name="afii10090" unicode="&#x448;" horiz-adv-x="1568" 
d="M98 0v1061h348v-764h164v764h348v-764h164v764h348v-1061h-1372z" />
    <glyph glyph-name="afii10091" unicode="&#x449;" horiz-adv-x="1648" 
d="M98 0v1061h348v-778h164v778h348v-778h164v778h348v-778h134v-545h-301l-21 262h-1184z" />
    <glyph glyph-name="afii10092" unicode="&#x44a;" horiz-adv-x="1157" 
d="M25 811v250h546v-346h174q185 0 282 -96t97 -271q0 -189 -109 -268.5t-331 -79.5h-461v811h-198zM571 236h105q58 0 88.5 33.5t32.5 88.5q3 129 -121 129h-105v-251z" />
    <glyph glyph-name="afii10093" unicode="&#x44b;" horiz-adv-x="1554" 
d="M98 0v1061h348v-346h175q185 0 281.5 -96t96.5 -271q0 -189 -109 -268.5t-331 -79.5h-461zM446 236h105q58 0 88.5 33.5t32.5 88.5q3 129 -121 129h-105v-251zM1110 0v1061h346v-1061h-346z" />
    <glyph glyph-name="afii10094" unicode="&#x44c;" horiz-adv-x="1032" 
d="M98 0v1061h348v-346h175q185 0 281.5 -96t96.5 -271q0 -189 -109 -268.5t-331 -79.5h-461zM446 236h105q58 0 88.5 33.5t32.5 88.5q3 129 -121 129h-105v-251z" />
    <glyph glyph-name="afii10095" unicode="&#x44d;" horiz-adv-x="962" 
d="M33 283l289 67q21 -53 48.5 -82.5t73.5 -29.5q41 0 70 24t29 66v84h-176v206h176v68q0 41 -27.5 65.5t-64.5 24.5q-37 2 -67.5 -21.5t-39.5 -68.5l-291 105q18 66 51.5 117.5t73 83t87 52.5t91.5 29t90 8q83 0 161 -25t142 -71.5t103 -122.5t39 -170v-325
q0 -94 -39 -169.5t-103.5 -122t-142 -71t-160.5 -24.5q-58 0 -115 14.5t-115.5 47t-107 94.5t-75.5 147z" />
    <glyph glyph-name="afii10096" unicode="&#x44e;" horiz-adv-x="1513" 
d="M96 0v1061h346v-373h115q0 76 25.5 141t68.5 110.5t100 77.5t119.5 47.5t128.5 16.5q83 -1 160.5 -26t141.5 -71.5t102.5 -123t38.5 -170.5v-336q0 -90 -38 -163t-101.5 -118t-141.5 -69t-162 -24t-162 24t-141 69t-101 118t-38 163v56h-115v-410h-346zM905 367
q1 -36 28.5 -58t65.5 -22t66 22t29 58v329q0 35 -29.5 56.5t-65.5 21.5t-65 -21.5t-29 -56.5v-329z" />
    <glyph glyph-name="afii10097" unicode="&#x44f;" horiz-adv-x="1071" 
d="M0 0l299 412q-221 77 -221 307q0 180 118.5 261t338.5 81h438v-1061h-348l2 371h-9l-229 -371h-389zM403 709q0 -55 32.5 -89t94.5 -34h95v237h-95q-60 0 -93.5 -29.5t-33.5 -84.5z" />
    <glyph glyph-name="afii10071" unicode="&#x451;" horiz-adv-x="980" 
d="M72 369v331q0 95 37 170t100 120t139 68t160 23q81 0 154 -24t132 -70t93.5 -121.5t34.5 -171.5v-286h-535v-39q0 -56 44 -88.5t106 -32.5q101 0 161 71l193 -155q-132 -184 -379 -184q-83 0 -160.5 24.5t-140.5 71t-101 122.5t-38 171zM88 1319q0 73 50 123.5t122 50.5
t122 -50.5t50 -123.5q0 -71 -50 -120.5t-122 -49.5t-122 49.5t-50 120.5zM391 635h232v76q0 43 -34.5 67.5t-80.5 24.5q-48 0 -82.5 -25.5t-34.5 -72.5v-70zM561 1319q0 74 49 124t123 50q73 0 123.5 -50.5t50.5 -123.5q0 -71 -50.5 -120.5t-123.5 -49.5q-74 0 -123 49.5
t-49 120.5z" />
    <glyph glyph-name="uni2000" unicode="&#x2000;" horiz-adv-x="1021" 
 />
    <glyph glyph-name="uni2001" unicode="&#x2001;" horiz-adv-x="2042" 
 />
    <glyph glyph-name="uni2002" unicode="&#x2002;" horiz-adv-x="1021" 
 />
    <glyph glyph-name="uni2003" unicode="&#x2003;" horiz-adv-x="2042" 
 />
    <glyph glyph-name="uni2004" unicode="&#x2004;" horiz-adv-x="680" 
 />
    <glyph glyph-name="uni2005" unicode="&#x2005;" horiz-adv-x="510" 
 />
    <glyph glyph-name="uni2006" unicode="&#x2006;" horiz-adv-x="340" 
 />
    <glyph glyph-name="uni2007" unicode="&#x2007;" horiz-adv-x="340" 
 />
    <glyph glyph-name="uni2008" unicode="&#x2008;" horiz-adv-x="255" 
 />
    <glyph glyph-name="uni2009" unicode="&#x2009;" horiz-adv-x="408" 
 />
    <glyph glyph-name="uni200A" unicode="&#x200a;" horiz-adv-x="113" 
 />
    <glyph glyph-name="uni2010" unicode="&#x2010;" horiz-adv-x="827" 
d="M94 420v348h639v-348h-639z" />
    <glyph glyph-name="uni2011" unicode="&#x2011;" horiz-adv-x="827" 
d="M94 420v348h639v-348h-639z" />
    <glyph glyph-name="figuredash" unicode="&#x2012;" horiz-adv-x="827" 
d="M94 420v348h639v-348h-639z" />
    <glyph glyph-name="endash" unicode="&#x2013;" horiz-adv-x="1169" 
d="M94 420v346h981v-346h-981z" />
    <glyph glyph-name="emdash" unicode="&#x2014;" horiz-adv-x="1777" 
d="M94 420v346h1589v-346h-1589z" />
    <glyph glyph-name="quoteleft" unicode="&#x2018;" horiz-adv-x="634" 
d="M47 1008l232 444h321l-139 -444h-414z" />
    <glyph glyph-name="quoteright" unicode="&#x2019;" horiz-adv-x="612" 
d="M59 1024l119 422h414l-211 -422h-322z" />
    <glyph glyph-name="quotesinglbase" unicode="&#x201a;" horiz-adv-x="604" 
d="M-18 -213l151 449h399l-239 -449h-311z" />
    <glyph glyph-name="quotedblleft" unicode="&#x201c;" horiz-adv-x="1114" 
d="M47 1008l232 444h321l-139 -444h-414zM526 1008l232 444h321l-139 -444h-414z" />
    <glyph glyph-name="quotedblright" unicode="&#x201d;" horiz-adv-x="1085" 
d="M59 1024l119 422h414l-211 -422h-322zM532 1024l119 422h414l-211 -422h-322z" />
    <glyph glyph-name="quotedblbase" unicode="&#x201e;" horiz-adv-x="1058" 
d="M-20 -213l151 426h399l-239 -426h-311zM438 -213l150 426h401l-239 -426h-312z" />
    <glyph glyph-name="dagger" unicode="&#x2020;" horiz-adv-x="1046" 
d="M51 713v348h297v389h350v-389h297v-348h-297v-910h-350v910h-297z" />
    <glyph glyph-name="daggerdbl" unicode="&#x2021;" horiz-adv-x="1120" 
d="M88 141v340h297v289h-297v338h297v342h350v-342h297v-338h-297v-289h297v-340h-297v-338h-350v338h-297z" />
    <glyph glyph-name="bullet" unicode="&#x2022;" horiz-adv-x="860" 
d="M98 678q0 137 97.5 234.5t236.5 97.5q136 0 233 -97.5t97 -234.5q0 -138 -97 -236t-233 -98q-139 0 -236.5 98t-97.5 236z" />
    <glyph glyph-name="ellipsis" unicode="&#x2026;" horiz-adv-x="1607" 
d="M59 195q0 85 59.5 143.5t147.5 58.5q85 0 144 -58.5t59 -143.5q0 -86 -59 -146.5t-144 -60.5q-87 0 -147 60t-60 147zM602 195q0 85 58 143.5t143 58.5q88 0 147.5 -58.5t59.5 -143.5q0 -87 -60 -147t-147 -60q-85 0 -143 60.5t-58 146.5zM1141 195q0 85 58 143.5
t144 58.5q89 0 147 -58.5t58 -143.5q0 -87 -58.5 -147t-146.5 -60q-86 0 -144 60t-58 147z" />
    <glyph glyph-name="uni202F" unicode="&#x202f;" horiz-adv-x="408" 
 />
    <glyph glyph-name="perthousand" unicode="&#x2030;" horiz-adv-x="2195" 
d="M53 1112q0 162 84.5 260t218.5 98q149 0 229.5 -94t80.5 -268q0 -166 -87 -264.5t-223 -98.5q-146 0 -224.5 94t-78.5 273zM113 14l1007 1557l264 -176l-1007 -1551zM283 1110q0 -121 71 -121q68 0 68 119q0 123 -68 123q-32 0 -51.5 -30t-19.5 -91zM852 354
q0 162 84.5 260.5t218.5 98.5q149 0 229 -94.5t80 -268.5q0 -166 -86.5 -264t-222.5 -98q-146 0 -224.5 93.5t-78.5 272.5zM1081 352q0 -121 72 -121q68 0 68 119q0 123 -68 123q-32 0 -52 -30.5t-20 -90.5zM1536 354q0 162 84.5 260.5t218.5 98.5q149 0 229 -94.5
t80 -268.5q0 -166 -86.5 -264t-222.5 -98q-146 0 -224.5 93.5t-78.5 272.5zM1765 352q0 -121 72 -121q68 0 68 119q0 123 -68 123q-32 0 -52 -30.5t-20 -90.5z" />
    <glyph glyph-name="guilsinglleft" unicode="&#x2039;" horiz-adv-x="722" 
d="M39 588l328 487l295 -178l-211 -307q32 -49 107 -160.5t104 -157.5l-297 -174z" />
    <glyph glyph-name="guilsinglright" unicode="&#x203a;" horiz-adv-x="722" 
d="M59 272l211 316l-209 309l297 176l326 -485l-322 -488z" />
    <glyph glyph-name="fraction" unicode="&#x2044;" horiz-adv-x="1193" 
d="M-12 20l930 1559l288 -176l-930 -1561z" />
    <glyph glyph-name="uni205F" unicode="&#x205f;" horiz-adv-x="510" 
 />
    <glyph glyph-name="Euro" unicode="&#x20ac;" horiz-adv-x="1320" 
d="M51 457l45 221h82v63h-127l45 222h82v8q0 119 48 215.5t129 157.5t182.5 93.5t212.5 32.5q71 0 139.5 -17t137.5 -54t130 -105t103 -161l-299 -121q-35 64 -107 93.5t-141 22t-121.5 -49.5t-52.5 -107v-8h364l-47 -222h-317v-63h364l-47 -221h-315q7 -46 43.5 -79.5
t87.5 -45t104.5 -6t100.5 39.5t69 89l320 -148q-85 -165 -228.5 -246t-294.5 -81q-107 0 -205 30.5t-177.5 88.5t-129 150.5t-53.5 207.5h-127z" />
    <glyph glyph-name="trademark" unicode="&#x2122;" horiz-adv-x="1767" 
d="M59 1120v332h703v-332h-184v-528h-338v528h-181zM821 596v856h281l141 -270l146 270h272v-856h-305l6 244l-86 -150h-51l-92 152l4 -246h-316z" />
    <glyph glyph-name="partialdiff" unicode="&#x2202;" horiz-adv-x="1034" 
d="M51 451q-3 113 34.5 212t101 164t143.5 102.5t162 37.5q63 0 133 -25q-5 94 -63 138t-137 35t-153 -60l-155 233q196 127 350 127q76 0 147.5 -24t137 -77t114 -130.5t77 -193t28.5 -255.5q0 -219 -59 -386t-177 -264t-280 -97q-99 0 -176.5 38t-125.5 103.5t-74 147.5
t-28 174zM383 471q-7 -98 32 -140q19 -18 42 -18h16q29 -1 59.5 31.5t55.5 85.5q36 76 39 197q-111 82 -184 5q-53 -57 -60 -161z" />
    <glyph glyph-name="uni2206" unicode="&#x2206;" horiz-adv-x="1198" 
d="M49 0v219l408 1163h284l408 -1161v-221h-1100zM444 346h297l-147 559z" />
    <glyph glyph-name="product" unicode="&#x220f;" horiz-adv-x="1294" 
d="M55 1108v344h1186v-344h-162v-1217h-346v1217h-174v-1217h-348v1217h-156z" />
    <glyph glyph-name="summation" unicode="&#x2211;" horiz-adv-x="1120" 
d="M55 106l387 533q-57 84 -180.5 278.5t-185.5 284.5v244h958v-301h-495q43 -65 154.5 -243.5t168.5 -262.5l-340 -457h537v-315h-1004v239z" />
    <glyph glyph-name="radical" unicode="&#x221a;" horiz-adv-x="1107" 
d="M-4 725l444 170l115 -580l193 1239h356l-377 -1792h-287l-221 697l-115 -31z" />
    <glyph glyph-name="infinity" unicode="&#x221e;" horiz-adv-x="1374" 
d="M59 575q0 160 102.5 264.5t260.5 104.5t272 -137q120 142 275 137q156 -6 252 -104.5t96 -255.5v-2q0 -80 -30.5 -149t-81 -116t-115.5 -73.5t-134 -26.5q-170 0 -268 125q-112 -125 -276 -125q-148 0 -250.5 103t-102.5 255zM326.5 556.5q5.5 -24.5 30.5 -41.5t61 -17
q46 0 127 84q-82 82 -125 82q-37 0 -62 -17t-31 -41.5t-0.5 -49zM836 582q81 -84 127 -84q36 0 61 17t30.5 41.5t-0.5 49t-31 41.5t-62 17q-43 0 -125 -82z" />
    <glyph glyph-name="integral" unicode="&#x222b;" horiz-adv-x="784" 
d="M0 -160l88 217q51 -38 95 -22.5t44 74.5q0 128 -18 1126q0 174 93.5 271.5t229.5 97.5q133 0 248 -84l-69 -201q-34 17 -63.5 17.5t-49 -28t-20.5 -81.5l10 -1118q0 -170 -94.5 -263.5t-233.5 -93.5q-120 0 -260 88z" />
    <glyph glyph-name="approxequal" unicode="&#x2248;" horiz-adv-x="1019" 
d="M63 817q65 106 142 166t151 66q38 6 85.5 -11.5t88 -39.5t82 -38t81.5 -4t73 60l184 -152q-121 -223 -299 -223q-90 0 -213 55q-123 61 -207 -32zM72 412q42 67 76.5 111.5t70.5 72.5t67.5 40t73.5 9.5t83 -14t100 -35.5v2q15 -5 39 -14t31 -11.5t23.5 -5.5t24 -1t24 6.5
t32.5 13.5t41 24l198 -147q-127 -232 -307 -232q-100 0 -209 66q-58 35 -80 35q-25 0 -102 -80z" />
    <glyph glyph-name="notequal" unicode="&#x2260;" horiz-adv-x="1081" 
d="M78 233v291h284l46 86h-330v291h483l103 197l247 -113l-45 -84h135v-291h-288l-45 -86h333v-291h-487l-100 -192l-248 104l45 88h-133z" />
    <glyph glyph-name="lessequal" unicode="&#x2264;" horiz-adv-x="1001" 
d="M74 27v342h665l-657 344v215l803 424v-375l-297 -158q4 -2 10.5 -6t27.5 -14t48.5 -23t85 -41.5t125.5 -62.5v-303h33v-342h-844z" />
    <glyph glyph-name="greaterequal" unicode="&#x2265;" horiz-adv-x="1001" 
d="M84 37v338h33v291l235 118l60 29l-295 154v379l803 -426v-213l-633 -332h641v-338h-844z" />
    <glyph glyph-name="lozenge" unicode="&#x25ca;" horiz-adv-x="1138" 
d="M41 678l412 731h239l406 -727l-410 -731h-246zM395 678l178 -320l170 314l-176 327z" />
    <glyph glyph-name="uni25FC" unicode="&#x25fc;" horiz-adv-x="1064" 
d="M0 0v1065h1065v-1065h-1065z" />
    </font>
</defs>
</svg>
